<svg xmlns="http://www.w3.org/2000/svg" xmlns:xlink="http://www.w3.org/1999/xlink" version="1.1" id="Layer_1" x="0px" y="0px" viewBox="0 0 1080 1080" style="enable-background:new 0 0 1080 1080;" xml:space="preserve">
<style xmlns="http://www.w3.org/2000/svg" type="text/css">
	.st0{opacity:0.1;fill:#2A94F4;}
	.st1{fill:#F7F7F7;}
	.st2{fill:#FFFFFF;}
	.st3{fill:#F1F1F1;stroke:#D3D3D3;stroke-width:3;stroke-miterlimit:10;}
	.st4{fill:#FA968C;}
	.st5{fill:#0B4870;}
	.st6{fill:#FAB9AF;}
	.st7{fill:#7510f1;}
	.st8{fill:#2A94F4;}
	.st9{opacity:0.4;fill:#2A94F4;}
	.st10{fill:none;stroke:#4D4D4D;stroke-miterlimit:10;}
</style>
<path xmlns="http://www.w3.org/2000/svg" class="st0" d="M166.1,823.6c0,0-83.73-132.07,30.26-202.28S302.45,399.24,411.4,383.68s118.84-243.55,270.63-192.55  s325.79,491.07,192.29,625.01C874.33,816.15,365.33,775.1,166.1,823.6z"/>
<ellipse xmlns="http://www.w3.org/2000/svg" class="st1" cx="539.67" cy="846.04" rx="466.55" ry="48.43"/>
<path xmlns="http://www.w3.org/2000/svg" class="st2" d="M992.62,857.69c0,0-46.86-17.33-227.86,0s-581.4,19.61-581.4,19.61S79.5,869.06,73.13,846.04  c0,0,296.91-25.41,409.98-22.44c113.07,2.97,325.62-17.13,325.62-17.13s171.07,11.85,190.55,31.2  C999.27,837.67,1020.2,849.42,992.62,857.69z"/>
<line xmlns="http://www.w3.org/2000/svg" class="st3" x1="398.25" y1="855.02" x2="483.11" y2="851.52"/>
<path xmlns="http://www.w3.org/2000/svg" class="st3" d="M679.46,841.89c0,0,43.29-1.21,67.29-7.04"/>
<path xmlns="http://www.w3.org/2000/svg" class="st3" d="M951.42,838.37c0,0-52-8.35-76.67-6.35"/>
<g xmlns="http://www.w3.org/2000/svg">
	<path class="st4" d="M590.85,763.31c0,0,7.25,18.06,8.7,21.03c1.2,2.46,3.56,4.02,5.81,5.58c0.72,0.5,1.47,1.68,2.11,2.67   c0.51,0.8,0.54,1.77,0.21,2.66c-5.7,15.53-23.09,21.77-23.5,20.61c-0.74-2.1,1.84-6.33,5.49-8.45c3.67-2.13,5.79-6.19,5.95-10.44   l0,0c0.13-3.37-0.62-6.72-2.16-9.73l-7.09-13.45L590.85,763.31z"/>
	<path class="st4" d="M565.84,785.92l-4.34,19.29c-1.33,5.9-0.49,12.09,2.34,17.42c0,0,0,0,0,0c1.59,2.98,0.18,6.68-3.01,7.82   c-10.3,3.67-30.27,10.66-31.16,9.91c-4.54-3.85,7.46-10.19,16.33-16.85c5.98-4.5,8.27-25.44,8.8-41.51l9.51,2.39   C565.05,784.6,565.63,785.18,565.84,785.92z"/>
	<path class="st5" d="M548.03,828.99c-4.26,1.4-8.94,1.86-13.22,2.39c-0.49,0.06-0.96,0.25-1.35,0.55   c-4.11,3.18-6.18,6.39-3.78,8.43c0.97,0.82,24.43-7.49,33.58-10.77c1.91-0.69,2.75-2.91,1.79-4.7l-1.74-3.27   C558.52,824.67,553.43,827.21,548.03,828.99z"/>
	<path class="st5" d="M557.74,571.21c11.34,1.55,21,14.62,19.01,29.22c-1.15,8.39-8.95,38.42-17.54,62.15   c-3.3,9.11-1.95,19.44,4.22,26.9c1.01,1.22,1.88,2.47,2.57,3.75c3.58,6.59,17.36,45.53,25.45,71.51c-0.64,3.4-2.67,7.71-5.22,9.21   c-14.23-22.06-37.37-62.34-41.18-69.35c-2.11-3.89-4.42-8.4-6.11-12.62c-9.21-12.19-7.43-80.32-5.58-93.86   C535.36,583.53,546.4,569.66,557.74,571.21z"/>
	<ellipse class="st5" cx="554.65" cy="489.56" rx="17.46" ry="22.52"/>
	<path class="st5" d="M558.84,491.89c0.28-12.47,10.37-22.95,22.82-23.66c11.04-0.63,20.58,6.14,24.15,15.8   c1.25,3.39,4.57,5.59,8.18,5.54c1.5-0.02,3.04,0.12,4.61,0.44c9.12,1.87,16.21,9.58,17.17,18.84c0.87,8.36-3.04,15.85-9.33,20.13   c-2.68,1.82-4.21,4.85-4.65,8.06c-2.06,14.86-15.62,25.77-31.1,24.08c-13.24-1.45-23.83-12.34-24.96-25.61   c-0.69-8.14,2.1-15.6,7.02-21.15C564.38,510.4,558.62,501.81,558.84,491.89z"/>
	<path class="st5" d="M554.65,459.65c0,0-9.82,6.18-8.63,14.51c0,0-5.25-3.72-6.43-16.51C538.77,448.78,554.65,459.65,554.65,459.65   z"/>
	<g>
		<path class="st6" d="M546.4,510.42c0,0-0.04,1.33-0.11,3.67c-0.09,2.38-0.2,5.76-0.53,9.82c-0.32,4.06-0.79,8.81-1.67,13.88    c-0.43,2.54-0.95,5.15-1.62,7.8c-0.64,2.65-1.45,5.31-2.43,7.93c-0.96,2.62-2.11,5.2-3.47,7.64c-1.35,2.43-2.87,4.74-4.6,6.79    c-1.73,2.05-3.62,3.84-5.55,5.34c-1.97,1.47-3.95,2.66-5.87,3.58c-0.95,0.47-1.9,0.82-2.79,1.19c-0.91,0.3-1.77,0.59-2.58,0.83    c-0.82,0.21-1.59,0.4-2.3,0.58c-0.71,0.15-1.38,0.26-1.97,0.37c-1.18,0.24-2.13,0.29-2.77,0.38c-0.64,0.07-0.98,0.11-0.98,0.11    c-0.71,0.08-1.36-0.43-1.44-1.14c-0.08-0.67,0.36-1.27,1-1.42l0.09-0.02c0,0,0.32-0.07,0.91-0.2c0.59-0.15,1.47-0.28,2.54-0.61    c0.54-0.16,1.14-0.32,1.78-0.52c0.63-0.23,1.32-0.48,2.05-0.74c0.71-0.31,1.46-0.64,2.25-0.99c0.75-0.42,1.57-0.8,2.38-1.28    c1.62-0.95,3.26-2.14,4.85-3.55c1.56-1.45,3.05-3.12,4.39-5.01c1.34-1.89,2.49-4.02,3.5-6.25c1.01-2.24,1.84-4.62,2.51-7.06    c0.67-2.44,1.23-4.92,1.65-7.41c0.44-2.48,0.75-4.95,0.99-7.36c0.25-2.4,0.39-4.75,0.52-6.98c0.12-2.23,0.18-4.34,0.22-6.3    c0.06-3.91,0.05-7.19,0.02-9.46c-0.04-2.32-0.07-3.65-0.07-3.65l0-0.01c-0.04-2.51,1.95-4.58,4.46-4.63    c2.51-0.04,4.58,1.95,4.63,4.46C546.41,510.28,546.4,510.36,546.4,510.42z"/>
	</g>
	<path class="st7" d="M543.66,553.56c-3.93-11.85-11.84-36.93-11.16-45.13c0.43-5.25,4.82-9.27,10.09-9.27h34.19   c5.67,0,10.31,4.5,10.47,10.16c0.29,9.9-4.27,32.44-6.84,44.24H543.66z"/>
	<path class="st5" d="M555.01,786.16c-0.54-0.33-0.84-0.94-0.82-1.57c0.72-25.15,2.25-57.21,2.81-63.35c0.06-0.7,0.15-1.4,0.25-2.08   c-5.39-29.73-6.2-93.64-6.74-104.83c-0.7-14.72,8.16-31.32,19.59-31.87c11.43-0.55,23.84,11.29,27.52,24.77   c2.42,8.9-6.94,56.25-17.1,90.57c-2.14,7.22-2.47,14.82-1.4,22.28c0.74,5.16,0.97,10.47,0.6,14.53   c-0.55,6.05-7.32,30.67-13.67,51.74c-0.18,0.61-0.67,1.09-1.29,1.23C561.48,788.31,558.05,788.01,555.01,786.16z"/>
	<path class="st7" d="M584.32,568.58c-1.77-4.97-2.3-10.28-1.56-15.5c1.72-12.12,4.74-34.95,4.46-44.64   c-0.15-5.18-4.39-9.28-9.58-9.28h-5.07c-1.93,4.48-6.02,7.94-12.38,7.94c-6.35,0-10.44-3.46-12.38-7.94h-4.76   c5.17,11.08,3.31,25.69-5.59,34.22c1.65,5.85,3.04,11.73,4.09,16.5c1.41,6.46,0.79,13.19-1.76,19.29   c-4.37,10.49-7.83,27.31-6.8,33.97c35.97,10.19,60.84-7.85,60.84-7.85L584.32,568.58z"/>
	<g>
		<polygon class="st6" points="554.65,501.51 570.16,499.88 565.26,482.91 555.22,484.15   "/>
	</g>
	<path class="st4" d="M555.22,484.15l10.03-1.24l1.53,5.3c-2.25,2.53-5.13,8-8.78,8c-1.16,0-2.21-0.33-3.16-0.93L555.22,484.15z"/>
	<path class="st6" d="M554.88,492.36c3.41,0,7.09-1.7,12.17-6.14c2.91-2.55,5.07-6.99,5.07-9.98v-16.59h-25.54   c0,0-1.92,8.81-0.06,17.55C547.92,483.75,552.2,492.36,554.88,492.36z"/>
	<path class="st6" d="M567.79,473.1c0,3.24,1.55,5.86,3.46,5.86c1.91,0,4.02-4.24,4.02-7.48s-2.11-4.24-4.02-4.24   C569.34,467.24,567.79,469.86,567.79,473.1z"/>
	<path class="st5" d="M575.27,461.66c0-5.18-4.2-9.38-9.38-9.38l-8.62,0c-2.46,0-4.86-0.64-6.95-1.83   c-3.04-1.73-6.89-1.15-8.96,1.66c-2.24,3.04-3.21,7.12,2.47,10.89c2.83,1.88,6.96-0.2,9.71,0.7c0.17-0.01,0.32-0.03,0.5-0.03h7.6   c2.64,0,4.66,2.16,4.74,4.8c0.05,1.67,1.42,3.01,3.1,3.01h0.34l1.22-3.9l4.24,5.72V461.66z"/>
	<path class="st6" d="M500.17,573.25c0,0,8.93,1.04,9.52,3.88c0.59,2.83,0.46,4.84-3.63,5.85c-4.09,1.01-10.18,0.44-13.77-0.63   c-3.58-1.07-8.83-5.41-9.09-6.24c-0.93-3.04,5.36-0.42,8.47,0.71c3.11,1.12,6.73,2.08,6.85,0.43c0.12-1.65-6-3.35-6.49-5.28   C491.53,570.02,500.17,573.25,500.17,573.25z"/>
	<path class="st5" d="M548.48,459.36c0.86,3.79-0.41,5.86,12.01,11.78c12.42,5.91,16.35,3.39,20.23,9.75c0,0-1.7-10.55-8.56-14.17   c-6.86-3.62-18.76-5.99-22.57-14.37C549.6,452.35,547.9,456.77,548.48,459.36z"/>
	<g>
		<path class="st6" d="M583.5,512.25c0,0-1.04,1.61-2.92,4.38c-1.88,2.76-4.56,6.71-7.93,11.34c-3.38,4.64-7.31,10.04-12.01,15.59    c-1.18,1.39-2.4,2.79-3.71,4.18c-1.34,1.39-2.67,2.78-4.51,4.14c-0.48,0.34-0.99,0.69-1.72,1.02c-0.36,0.16-0.81,0.33-1.42,0.44    c-0.57,0.1-1.57,0.12-2.52-0.4c-0.96-0.51-1.51-1.37-1.74-1.94c-0.24-0.59-0.33-1.06-0.37-1.47c-0.09-0.81-0.05-1.43,0.01-2.02    c0.26-2.3,0.83-4.16,1.41-6.07c1.19-3.76,2.58-7.33,4.01-10.83c1.43-3.49,2.9-6.89,4.35-10.15c2.93-6.52,5.8-12.53,8.28-17.67    c1.23-2.57,2.41-4.91,3.45-6.98c1.04-2.07,1.95-3.87,2.69-5.36c1.5-2.97,2.36-4.66,2.36-4.66c0.25-0.49,0.85-0.69,1.35-0.44    c0.47,0.24,0.67,0.81,0.47,1.29c0,0-0.74,1.75-2.03,4.81c-1.27,3.07-3.09,7.44-5.27,12.7c-2.18,5.25-4.68,11.4-7.23,18.01    c-1.29,3.3-2.58,6.72-3.82,10.21c-1.23,3.48-2.43,7.05-3.37,10.58c-0.46,1.74-0.86,3.57-0.96,5.04c-0.03,0.36-0.01,0.68,0.01,0.81    c0.01,0.07,0.03,0.05-0.03-0.1c-0.05-0.14-0.3-0.61-0.84-0.89c-0.53-0.29-1.04-0.24-1.15-0.23c-0.15,0.02-0.15,0.04-0.09,0    c0.12-0.06,0.39-0.24,0.66-0.45c1.14-0.89,2.38-2.22,3.52-3.51c1.15-1.31,2.27-2.68,3.35-4.04c2.15-2.74,4.16-5.48,6.06-8.09    c1.89-2.61,3.65-5.12,5.26-7.45c3.2-4.66,5.86-8.57,7.68-11.32c1.82-2.75,2.86-4.31,2.86-4.31c1.07-1.61,3.24-2.05,4.85-0.98    C584.09,508.49,584.53,510.64,583.5,512.25z"/>
	</g>
	<path class="st5" d="M550.87,460.06c0,0-0.47,12.76-11.63,18.89c0,0,4.92-9.65,4.58-15.96   C543.49,456.69,551.61,455.7,550.87,460.06z"/>
	<path class="st5" d="M611.79,799.68c0.74-0.85,0.75-2.1,0.03-2.96c-0.59-0.7-2.17-2.63-3.35-4.08c-0.51-0.63-1.48-0.48-1.83,0.25   c-3.96,8.29-10.59,14.76-19.22,15.95c-2.8,1.89-4.59,6.17-4,7.83c0.14,0.39,3.97,0.44,8-1.86   C609.29,804.57,611.79,799.68,611.79,799.68z"/>
	<path class="st8" d="M568.03,492.44c-0.89,0.92-2.11,1.19-2.73,0.6l-5.09-4.91c-0.62-0.59-0.39-1.83,0.5-2.75l11.58-12.01   c0.89-0.92,2.11-1.19,2.73-0.6l5.09,4.91c0.62,0.59,0.39,1.83-0.5,2.75L568.03,492.44z"/>
	<path class="st6" d="M570.32,484.81c0,0-3.83,5.08-2.67,6.76c1.16,1.68,2.25,2.6,4.76,1c2.51-1.6,5.2-4.99,6.41-7.35   c1.2-2.36,1.56-7.16,1.25-7.69c-1.1-1.96-2.83,2.54-3.78,4.67c-0.95,2.14-2.23,4.46-3.13,3.71c-0.9-0.75,1.22-4.7,0.47-5.9   C572.89,478.83,570.32,484.81,570.32,484.81z"/>
</g>
<g xmlns="http://www.w3.org/2000/svg">
	<path class="st7" d="M507.01,450.33c10.36-13.83,16.5-31.01,16.5-49.62c0-45.75-37.08-82.83-82.83-82.83s-82.83,37.08-82.83,82.83   s37.08,82.83,82.83,82.83c21.11,0,40.37-7.9,55-20.9l19.23,9.73L507.01,450.33z"/>
	<path class="st2" d="M491.38,361.53c0,1.9-2.06,3.45-4.6,3.45h-94.75c-2.54,0-4.6-1.54-4.6-3.45l0,0c0-1.9,2.06-3.45,4.6-3.45   h94.75C489.32,358.08,491.38,359.63,491.38,361.53L491.38,361.53z"/>
	<path class="st2" d="M491.38,397.27c0,1.9-2.06,3.45-4.6,3.45h-94.75c-2.54,0-4.6-1.54-4.6-3.45l0,0c0-1.9,2.06-3.45,4.6-3.45   h94.75C489.32,393.83,491.38,395.37,491.38,397.27L491.38,397.27z"/>
	<path class="st2" d="M465.25,379.4c0,1.9-1.54,3.45-3.45,3.45h-70.93c-1.9,0-3.45-1.54-3.45-3.45l0,0c0-1.9,1.54-3.45,3.45-3.45   h70.93C463.71,375.95,465.25,377.5,465.25,379.4L465.25,379.4z"/>
	<path class="st2" d="M491.38,433.02c0,1.9-2.06,3.45-4.6,3.45h-94.75c-2.54,0-4.6-1.54-4.6-3.45l0,0c0-1.9,2.06-3.45,4.6-3.45   h94.75C489.32,429.57,491.38,431.11,491.38,433.02L491.38,433.02z"/>
	<path class="st2" d="M465.25,415.14c0,1.9-1.54,3.45-3.45,3.45h-70.93c-1.9,0-3.45-1.54-3.45-3.45l0,0c0-1.9,1.54-3.45,3.45-3.45   h70.93C463.71,411.7,465.25,413.24,465.25,415.14L465.25,415.14z"/>
</g>
<path xmlns="http://www.w3.org/2000/svg" class="st7" d="M478.33,726.63c0,13.81-12.69,25-28.35,25H281.35c-15.66,0-28.35-11.19-28.35-25v-11.37  c0-13.81,12.69-25,28.35-25h168.62c15.66,0,28.35,11.19,28.35,25V726.63z"/>
<path xmlns="http://www.w3.org/2000/svg" class="st7" d="M273,805.2c0,3.31-2.69,6-6,6l0,0c-3.31,0-6-2.69-6-6v-33.95c0-3.31,2.69-6,6-6l0,0c3.31,0,6,2.69,6,6V805.2z"/>
<path xmlns="http://www.w3.org/2000/svg" class="st7" d="M469.5,805.2c0,3.31-2.69,6-6,6l0,0c-3.31,0-6-2.69-6-6v-33.95c0-3.31,2.69-6,6-6l0,0c3.31,0,6,2.69,6,6V805.2z  "/>
<path xmlns="http://www.w3.org/2000/svg" class="st7" d="M849.33,726.63c0,13.81-12.69,25-28.35,25H652.35c-15.66,0-28.35-11.19-28.35-25v-11.37  c0-13.81,12.69-25,28.35-25h168.62c15.66,0,28.35,11.19,28.35,25V726.63z"/>
<path xmlns="http://www.w3.org/2000/svg" class="st7" d="M644,805.2c0,3.31-2.69,6-6,6l0,0c-3.31,0-6-2.69-6-6v-33.95c0-3.31,2.69-6,6-6l0,0c3.31,0,6,2.69,6,6V805.2z"/>
<path xmlns="http://www.w3.org/2000/svg" class="st7" d="M840.5,805.2c0,3.31-2.69,6-6,6l0,0c-3.31,0-6-2.69-6-6v-33.95c0-3.31,2.69-6,6-6l0,0c3.31,0,6,2.69,6,6V805.2z  "/>
<path xmlns="http://www.w3.org/2000/svg" class="st9" d="M882.17,791.98c0,0,64.67-58.9,129.33-14.78c0,0-31.73-40.59-77.33-34.54  C888.57,748.71,882.17,791.98,882.17,791.98z"/>
<path xmlns="http://www.w3.org/2000/svg" class="st9" d="M884.15,794.35c0,0,8.41-87.07,85.97-97.75c0,0-50.77-8.8-80.51,26.29S884.15,794.35,884.15,794.35z"/>
<path xmlns="http://www.w3.org/2000/svg" class="st5" d="M883.58,793.97c0,0,30.3-82.06,108.02-72.64c0,0-46.85-21.43-84.55,4.93  C869.35,752.62,883.58,793.97,883.58,793.97z"/>
<path xmlns="http://www.w3.org/2000/svg" class="st8" d="M855.67,793.79c0,9.13,7.4,16.54,16.54,16.54h25.43c9.13,0,16.54-7.4,16.54-16.54l0,0  c0-9.13-7.4-16.54-16.54-16.54h-25.43C863.07,777.26,855.67,784.66,855.67,793.79L855.67,793.79z"/>
<path xmlns="http://www.w3.org/2000/svg" class="st8" d="M197.3,811.87c0,3.62-2.93,6.55-6.55,6.55h-25.27c-3.62,0-6.55-2.93-6.55-6.55v-58.96  c0-3.62,2.93-6.55,6.55-6.55h25.27c3.62,0,6.55,2.93,6.55,6.55V811.87z"/>
<path xmlns="http://www.w3.org/2000/svg" class="st9" d="M181.14,678.48c0,0-20.69,42.05,9.79,49.21c30.48,7.16,31.36-24.56,28.24-37.63s45.24-48.22,5.35-79.31  S153.55,662.44,181.14,678.48z"/>
<path xmlns="http://www.w3.org/2000/svg" class="st9" d="M142.62,701.31c0,0-0.97,27.67,17.19,24.16s10.96-20.83,6.11-27.12c-4.85-6.29,12.72-36.94-16.31-44.04  S123.87,699.34,142.62,701.31z"/>
<line xmlns="http://www.w3.org/2000/svg" class="st10" x1="145.72" y1="675.22" x2="168.18" y2="746.35"/>
<polyline xmlns="http://www.w3.org/2000/svg" class="st10" points="158.82,689.71 154.07,701.65 143.23,695.68 "/>
<line xmlns="http://www.w3.org/2000/svg" class="st10" x1="205.51" y1="634.98" x2="186.24" y2="746.35"/>
<polyline xmlns="http://www.w3.org/2000/svg" class="st10" points="216.81,651.83 200.85,661.91 190.6,648.08 "/>
<polyline xmlns="http://www.w3.org/2000/svg" class="st10" points="212.44,675.18 196.48,685.26 186.24,671.44 "/>
<path xmlns="http://www.w3.org/2000/svg" class="st0" d="M849.33,358.08c0,6.49-5.26,11.76-11.76,11.76H698.15c-6.49,0-11.76-5.26-11.76-11.76l0,0  c0-6.49,5.26-11.76,11.76-11.76h139.43C844.07,346.33,849.33,351.59,849.33,358.08L849.33,358.08z"/>
<path xmlns="http://www.w3.org/2000/svg" class="st0" d="M629.83,240.03c0,6.49-5.26,11.76-11.76,11.76H478.65c-6.49,0-11.76-5.26-11.76-11.76l0,0  c0-6.49,5.26-11.76,11.76-11.76h139.43C624.57,228.28,629.83,233.54,629.83,240.03L629.83,240.03z"/>
<path xmlns="http://www.w3.org/2000/svg" class="st0" d="M379.75,526.36c0,6.49-5.26,11.76-11.76,11.76H228.57c-6.49,0-11.76-5.26-11.76-11.76l0,0  c0-6.49,5.26-11.76,11.76-11.76h139.43C374.48,514.6,379.75,519.87,379.75,526.36L379.75,526.36z"/>
<path xmlns="http://www.w3.org/2000/svg" class="st0" d="M956.22,476c0,6.49-5.26,11.76-11.76,11.76H805.04c-6.49,0-11.76-5.26-11.76-11.76l0,0  c0-6.49,5.26-11.76,11.76-11.76h139.43C950.96,464.25,956.22,469.51,956.22,476L956.22,476z"/>
<path xmlns="http://www.w3.org/2000/svg" class="st5" d="M478.33,760.96c0,5.15-4.18,9.33-9.33,9.33H262.33c-5.15,0-9.33-4.18-9.33-9.33l0,0c0-5.15,4.18-9.33,9.33-9.33  H469C474.15,751.63,478.33,755.81,478.33,760.96L478.33,760.96z"/>
<path xmlns="http://www.w3.org/2000/svg" class="st5" d="M849.33,760.96c0,5.15-4.18,9.33-9.33,9.33H633.33c-5.15,0-9.33-4.18-9.33-9.33l0,0c0-5.15,4.18-9.33,9.33-9.33  H840C845.15,751.63,849.33,755.81,849.33,760.96L849.33,760.96z"/>
</svg>