<svg xmlns="http://www.w3.org/2000/svg" id="Layer_1" data-name="Layer 1" viewBox="0 0 843 823"><defs xmlns="http://www.w3.org/2000/svg"><style>.cls-1{fill:#cce9ff;}.cls-2{fill:#0e538c;}.cls-3{fill:#0b4870;}.cls-4{fill:#fff;}.cls-5{fill:#2a94f4;}.cls-6{fill:none;}.cls-7{fill:#6b6b6b;}.cls-8{fill:#f81c35;}.cls-9{fill:#ffe3ca;}.cls-10{fill:#fcd2b1;}</style></defs><title xmlns="http://www.w3.org/2000/svg">Artboard 1 copy 5</title><path xmlns="http://www.w3.org/2000/svg" class="cls-1" d="M290.77,66.87c87.11-57.4,209.48-45.73,286.48,39.46C619.38,152.94,636.41,217,680.16,262.66c49.16,51.31,108,101.23,130.32,171.19,23.74,74.39,2.86,159.69-50.15,216.55C695.82,719.61,601,698.83,511.41,697.7c-366.89-4.62-639.65-249.5-292.58-551.42C247.86,121,262,85.84,290.77,66.87Z"/><path xmlns="http://www.w3.org/2000/svg" class="cls-2" d="M265.34,306.63c.26-7.44,2.63-14.63,5-21.69,1.79-5.33,3.77-10.92,7.71-14.84,9.78-5.49,28.22,27.42,18.44,32.9,2,4,7,7,13,6-4-11-17.74-29.74-6.74-37.74,8.51-6.62,24.33-3.24,35.77-3.26,11.14,1.89,23,4.86,30.11,13.62,7.41,9.13,7.45,22.83,2,33.27-4.9,9.45-16,20.59-27.15,22.28l3,16.34L330,337.87c-12.06-.09-24.51-1.79-36-3.26-7.59-1-15.64-2.42-21.26-7.62C267.24,321.93,265.09,314.07,265.34,306.63Z"/><path xmlns="http://www.w3.org/2000/svg" class="cls-3" d="M330.19,219c14.31,4.18,21,20.11,20.26,33.69-.48,8.61-4.06,14.54-9.35,15.46a139.11,139.11,0,0,1-16.42,2.07c-4.12.29-6.6.46-15.92,3.22a7.44,7.44,0,0,0-5.09,5.08c-2.72,8,2.1,21.93,8.13,30.31a1.25,1.25,0,0,1-1.13,2,22.47,22.47,0,0,1-4.35-.81c-13.86-4.05-16.09-19.76-16.24-20.92a33.59,33.59,0,0,1-.46-6.94c0-4.5.06-6.76-5.2-8.3a39.79,39.79,0,0,0-7-1.2,29.49,29.49,0,0,1-5.37-1c-14.09-4.11-13.44-18.37-12.75-33.46.2-4.24,2.51-8,6.87-11.3,13.7-10.22,44.59-12.72,63-8.14C329.54,218.83,329.87,218.91,330.19,219ZM348,252.56c.7-12.56-5.83-28-19.35-31.39-17.56-4.36-48-1.94-60.95,7.72-3.74,2.78-5.71,6-5.87,9.4-.77,17-.43,27.63,10.95,31a27,27,0,0,0,4.92.91,43,43,0,0,1,7.46,1.29c7.08,2.07,7,6.08,7,10.72a32.16,32.16,0,0,0,.42,6.49s0,.06,0,.08,2,15.22,14.46,18.87c.37.11.75.21,1.14.29-5.7-9.1-9.62-22.08-6.85-30.16a10,10,0,0,1,6.74-6.68c9.58-2.84,12.17-3,16.46-3.31a138.25,138.25,0,0,0,16.16-2.05C344.75,265,347.54,260,348,252.56Z"/><path xmlns="http://www.w3.org/2000/svg" class="cls-4" d="M328.61,221.17c13.52,3.37,20.05,18.83,19.35,31.39-.42,7.39-3.21,12.42-7.29,13.13a138.25,138.25,0,0,1-16.16,2.05c-4.29.29-6.88.47-16.46,3.31a10,10,0,0,0-6.74,6.68c-2.77,8.08,1.15,21.06,6.85,30.16-.39-.08-.77-.18-1.14-.29-12.49-3.65-14.44-18.71-14.46-18.87s0-.05,0-.08a32.16,32.16,0,0,1-.42-6.49c0-4.64.08-8.65-7-10.72a43,43,0,0,0-7.46-1.29,27,27,0,0,1-4.92-.91c-11.38-3.32-11.72-13.91-10.95-31,.16-3.45,2.13-6.62,5.87-9.4C280.6,219.23,311.05,216.81,328.61,221.17Z"/><path xmlns="http://www.w3.org/2000/svg" class="cls-3" d="M272,240.32a.75.75,0,0,1-.52-.69.86.86,0,0,1,.7-.93l58-8.07a.73.73,0,0,1,.82.71.86.86,0,0,1-.71.93l-58,8.07A.57.57,0,0,1,272,240.32Z"/><path xmlns="http://www.w3.org/2000/svg" class="cls-3" d="M273.26,252.23a.79.79,0,0,1-.53-.72.87.87,0,0,1,.72-.91l52.74-6.22a.74.74,0,0,1,.8.73.85.85,0,0,1-.72.91l-52.74,6.23A.82.82,0,0,1,273.26,252.23Z"/><path xmlns="http://www.w3.org/2000/svg" class="cls-3" d="M277.56,263.45a.76.76,0,0,1-.53-.72.87.87,0,0,1,.73-.91l44.67-4.54a.74.74,0,0,1,.79.75.85.85,0,0,1-.73.9l-44.67,4.54A.57.57,0,0,1,277.56,263.45Z"/><rect xmlns="http://www.w3.org/2000/svg" class="cls-4" x="487" y="181" width="141" height="100" rx="12" ry="12"/><path xmlns="http://www.w3.org/2000/svg" class="cls-2" d="M480.6,195.11v75.11A18.77,18.77,0,0,0,499.38,289H612a18.77,18.77,0,0,0,18.77-18.77V195.11A18.77,18.77,0,0,0,612,176.34H499.38A18.77,18.77,0,0,0,480.6,195.11Zm9.77,76.95a8.72,8.72,0,0,1-.38-1.84V195.11a9.2,9.2,0,0,1,.55-2.73l39.74,34.06ZM612,185.72a8.73,8.73,0,0,1,1.76.36l-58.09,49.79-58.09-49.79a8.73,8.73,0,0,1,1.76-.36Zm-30.9,40.71,39.73-34.05a9.2,9.2,0,0,1,.55,2.73v75.11a8.61,8.61,0,0,1-.37,1.83ZM499.38,279.6a8.87,8.87,0,0,1-2.68-.54l40.71-46.51,15.24,13.06a4.66,4.66,0,0,0,6.11,0L574,232.55l40.7,46.51a8.87,8.87,0,0,1-2.67.54Z"/><rect xmlns="http://www.w3.org/2000/svg" class="cls-4" x="573" y="416.61" width="112" height="79.39" rx="12" ry="12"/><path xmlns="http://www.w3.org/2000/svg" class="cls-5" d="M569.81,427.32v59.4a14.85,14.85,0,0,0,14.85,14.85h89.11a14.85,14.85,0,0,0,14.85-14.85v-59.4a14.85,14.85,0,0,0-14.85-14.85H584.66A14.85,14.85,0,0,0,569.81,427.32Zm7.72,60.86a7.13,7.13,0,0,1-.29-1.46v-59.4a7,7,0,0,1,.43-2.16l31.44,26.94Zm96.24-68.29a6.61,6.61,0,0,1,1.39.29l-45.95,39.38-45.94-39.38a6.48,6.48,0,0,1,1.39-.29Zm-24.44,32.2,31.42-26.93a7,7,0,0,1,.44,2.16v59.4a7,7,0,0,1-.29,1.45Zm-64.67,42.06a7.2,7.2,0,0,1-2.12-.43l32.2-36.8,12.06,10.34a3.69,3.69,0,0,0,4.83,0l12.06-10.34,32.19,36.8a7.07,7.07,0,0,1-2.11.43Z"/><path xmlns="http://www.w3.org/2000/svg" class="cls-1" d="M716.44,182.4v40.21a10.05,10.05,0,0,0,10,10h60.32a10.05,10.05,0,0,0,10.05-10V182.4a10.05,10.05,0,0,0-10.05-10.05H726.49A10.05,10.05,0,0,0,716.44,182.4Zm5.23,41.2a4.7,4.7,0,0,1-.2-1V182.4a4.74,4.74,0,0,1,.29-1.46L743,199.17Zm65.14-46.23a4.25,4.25,0,0,1,.94.2l-31.1,26.65-31.1-26.65a4.25,4.25,0,0,1,.94-.2Zm-16.54,21.8,21.27-18.23a4.75,4.75,0,0,1,.3,1.46v40.21a4.61,4.61,0,0,1-.2,1Zm-43.78,28.47a4.85,4.85,0,0,1-1.43-.29l21.79-24.91,8.17,7a2.52,2.52,0,0,0,1.63.61,2.55,2.55,0,0,0,1.64-.61l8.16-7,21.79,24.91a4.85,4.85,0,0,1-1.43.29Z"/><rect xmlns="http://www.w3.org/2000/svg" class="cls-4" x="685" y="344.61" width="60" height="45.39" rx="12" ry="12"/><path xmlns="http://www.w3.org/2000/svg" class="cls-2" d="M683.53,351.65v31.17a7.79,7.79,0,0,0,7.79,7.79h46.75a7.79,7.79,0,0,0,7.79-7.79V351.65a7.79,7.79,0,0,0-7.79-7.79H691.32A7.79,7.79,0,0,0,683.53,351.65Zm4.05,31.93a3.8,3.8,0,0,1-.16-.76V351.65a3.85,3.85,0,0,1,.23-1.13l16.5,14.13Zm50.49-35.83a3.5,3.5,0,0,1,.73.15l-24.1,20.66L690.59,347.9a3.5,3.5,0,0,1,.73-.15Zm-12.82,16.9,16.49-14.13a3.85,3.85,0,0,1,.23,1.13v31.17a3.32,3.32,0,0,1-.16.76Zm-33.93,22.06a3.71,3.71,0,0,1-1.11-.22l16.89-19.31,6.33,5.43a1.94,1.94,0,0,0,2.53,0l6.33-5.43,16.89,19.31a3.77,3.77,0,0,1-1.11.22Z"/><path xmlns="http://www.w3.org/2000/svg" class="cls-5" d="M612.45,94.6V127a8.09,8.09,0,0,0,8.09,8.09h48.54a8.09,8.09,0,0,0,8.09-8.09V94.6a8.09,8.09,0,0,0-8.09-8.09H620.54A8.09,8.09,0,0,0,612.45,94.6Zm4.21,33.16a3.47,3.47,0,0,1-.17-.79V94.6a3.87,3.87,0,0,1,.24-1.17l17.13,14.67Zm52.42-37.2a3.79,3.79,0,0,1,.76.15l-25,21.46-25-21.46a3.79,3.79,0,0,1,.76-.15ZM655.77,108.1l17.12-14.67a3.87,3.87,0,0,1,.24,1.17V127a4.26,4.26,0,0,1-.16.79ZM620.54,131a4,4,0,0,1-1.15-.23l17.54-20,6.57,5.63a2,2,0,0,0,1.31.49,2,2,0,0,0,1.32-.49l6.57-5.63,17.54,20a4.12,4.12,0,0,1-1.16.23Z"/><rect xmlns="http://www.w3.org/2000/svg" class="cls-6" x="528.24" y="292.3" width="6" height="6"/><circle xmlns="http://www.w3.org/2000/svg" class="cls-7" cx="531.24" cy="295.3" r="3"/><rect xmlns="http://www.w3.org/2000/svg" class="cls-6" x="518.7" y="297.36" width="6" height="6"/><circle xmlns="http://www.w3.org/2000/svg" class="cls-7" cx="521.7" cy="300.36" r="3"/><rect xmlns="http://www.w3.org/2000/svg" class="cls-6" x="509.42" y="302.78" width="6" height="6"/><circle xmlns="http://www.w3.org/2000/svg" class="cls-7" cx="512.42" cy="305.78" r="3"/><rect xmlns="http://www.w3.org/2000/svg" class="cls-6" x="501.86" y="310.49" width="6" height="6"/><circle xmlns="http://www.w3.org/2000/svg" class="cls-7" cx="504.86" cy="313.49" r="3"/><rect xmlns="http://www.w3.org/2000/svg" class="cls-6" x="495.48" y="319.1" width="6" height="6"/><circle xmlns="http://www.w3.org/2000/svg" class="cls-7" cx="498.48" cy="322.1" r="3"/><rect xmlns="http://www.w3.org/2000/svg" class="cls-6" x="490.56" y="328.67" width="6" height="6"/><circle xmlns="http://www.w3.org/2000/svg" class="cls-7" cx="493.56" cy="331.67" r="3"/><rect xmlns="http://www.w3.org/2000/svg" class="cls-6" x="487.47" y="339" width="6" height="6"/><circle xmlns="http://www.w3.org/2000/svg" class="cls-7" cx="490.47" cy="342" r="3"/><rect xmlns="http://www.w3.org/2000/svg" class="cls-6" x="544.67" y="381.5" width="6" height="6"/><circle xmlns="http://www.w3.org/2000/svg" class="cls-7" cx="547.67" cy="384.5" r="3"/><rect xmlns="http://www.w3.org/2000/svg" class="cls-6" x="533.87" y="381.5" width="6" height="6"/><circle xmlns="http://www.w3.org/2000/svg" class="cls-7" cx="536.87" cy="384.5" r="3"/><rect xmlns="http://www.w3.org/2000/svg" class="cls-6" x="523.07" y="381.5" width="6" height="6"/><circle xmlns="http://www.w3.org/2000/svg" class="cls-7" cx="526.07" cy="384.5" r="3"/><rect xmlns="http://www.w3.org/2000/svg" class="cls-6" x="512.27" y="381.5" width="6" height="6"/><circle xmlns="http://www.w3.org/2000/svg" class="cls-7" cx="515.27" cy="384.5" r="3"/><rect xmlns="http://www.w3.org/2000/svg" class="cls-6" x="501.47" y="381.5" width="6" height="6"/><circle xmlns="http://www.w3.org/2000/svg" class="cls-7" cx="504.47" cy="384.5" r="3"/><rect xmlns="http://www.w3.org/2000/svg" class="cls-6" x="669.65" y="364.11" width="6" height="6"/><circle xmlns="http://www.w3.org/2000/svg" class="cls-7" cx="672.65" cy="367.11" r="3"/><rect xmlns="http://www.w3.org/2000/svg" class="cls-6" x="658.86" y="363.81" width="6" height="6"/><circle xmlns="http://www.w3.org/2000/svg" class="cls-7" cx="661.86" cy="366.81" r="3"/><rect xmlns="http://www.w3.org/2000/svg" class="cls-6" x="648.06" y="363.51" width="6" height="6"/><circle xmlns="http://www.w3.org/2000/svg" class="cls-7" cx="651.06" cy="366.51" r="3"/><rect xmlns="http://www.w3.org/2000/svg" class="cls-6" x="637.63" y="366.07" width="6" height="6"/><circle xmlns="http://www.w3.org/2000/svg" class="cls-7" cx="640.63" cy="369.07" r="3"/><rect xmlns="http://www.w3.org/2000/svg" class="cls-6" x="627.24" y="369.03" width="6" height="6"/><circle xmlns="http://www.w3.org/2000/svg" class="cls-7" cx="630.24" cy="372.03" r="3"/><rect xmlns="http://www.w3.org/2000/svg" class="cls-6" x="618.25" y="374.97" width="6" height="6"/><circle xmlns="http://www.w3.org/2000/svg" class="cls-7" cx="621.25" cy="377.97" r="3"/><rect xmlns="http://www.w3.org/2000/svg" class="cls-6" x="610.18" y="381.99" width="6" height="6"/><circle xmlns="http://www.w3.org/2000/svg" class="cls-7" cx="613.18" cy="384.99" r="3"/><rect xmlns="http://www.w3.org/2000/svg" class="cls-6" x="603.65" y="390.55" width="6" height="6"/><circle xmlns="http://www.w3.org/2000/svg" class="cls-7" cx="606.65" cy="393.55" r="3"/><rect xmlns="http://www.w3.org/2000/svg" class="cls-6" x="599.13" y="400.33" width="6" height="6"/><circle xmlns="http://www.w3.org/2000/svg" class="cls-7" cx="602.13" cy="403.33" r="3"/><rect xmlns="http://www.w3.org/2000/svg" class="cls-6" x="720.02" y="239.14" width="6" height="6"/><circle xmlns="http://www.w3.org/2000/svg" class="cls-7" cx="723.02" cy="242.14" r="3"/><rect xmlns="http://www.w3.org/2000/svg" class="cls-6" x="711.14" y="245.28" width="6" height="6"/><circle xmlns="http://www.w3.org/2000/svg" class="cls-7" cx="714.14" cy="248.28" r="3"/><rect xmlns="http://www.w3.org/2000/svg" class="cls-6" x="701.19" y="249.41" width="6" height="6"/><circle xmlns="http://www.w3.org/2000/svg" class="cls-7" cx="704.19" cy="252.41" r="3"/><rect xmlns="http://www.w3.org/2000/svg" class="cls-6" x="691.11" y="253.29" width="6" height="6"/><circle xmlns="http://www.w3.org/2000/svg" class="cls-7" cx="694.11" cy="256.29" r="3"/><rect xmlns="http://www.w3.org/2000/svg" class="cls-6" x="680.58" y="255.61" width="6" height="6"/><circle xmlns="http://www.w3.org/2000/svg" class="cls-7" cx="683.58" cy="258.61" r="3"/><rect xmlns="http://www.w3.org/2000/svg" class="cls-6" x="669.98" y="257.69" width="6" height="6"/><circle xmlns="http://www.w3.org/2000/svg" class="cls-7" cx="672.98" cy="260.69" r="3"/><rect xmlns="http://www.w3.org/2000/svg" class="cls-6" x="659.22" y="258.56" width="6" height="6"/><circle xmlns="http://www.w3.org/2000/svg" class="cls-7" cx="662.22" cy="261.56" r="3"/><rect xmlns="http://www.w3.org/2000/svg" class="cls-6" x="648.44" y="258.98" width="6" height="6"/><circle xmlns="http://www.w3.org/2000/svg" class="cls-7" cx="651.44" cy="261.98" r="3"/><rect xmlns="http://www.w3.org/2000/svg" class="cls-6" x="637.65" y="258.68" width="6" height="6"/><circle xmlns="http://www.w3.org/2000/svg" class="cls-7" cx="640.65" cy="261.68" r="3"/><rect xmlns="http://www.w3.org/2000/svg" class="cls-6" x="596.83" y="112.54" width="6" height="6"/><circle xmlns="http://www.w3.org/2000/svg" class="cls-7" cx="599.83" cy="115.54" r="3"/><rect xmlns="http://www.w3.org/2000/svg" class="cls-6" x="586.4" y="115.33" width="6" height="6"/><circle xmlns="http://www.w3.org/2000/svg" class="cls-7" cx="589.4" cy="118.33" r="3"/><rect xmlns="http://www.w3.org/2000/svg" class="cls-6" x="577.82" y="121.57" width="6" height="6"/><circle xmlns="http://www.w3.org/2000/svg" class="cls-7" cx="580.82" cy="124.57" r="3"/><rect xmlns="http://www.w3.org/2000/svg" class="cls-6" x="571.38" y="129.94" width="6" height="6"/><circle xmlns="http://www.w3.org/2000/svg" class="cls-7" cx="574.38" cy="132.94" r="3"/><rect xmlns="http://www.w3.org/2000/svg" class="cls-6" x="567.65" y="139.99" width="6" height="6"/><circle xmlns="http://www.w3.org/2000/svg" class="cls-7" cx="570.65" cy="142.99" r="3"/><rect xmlns="http://www.w3.org/2000/svg" class="cls-6" x="566.43" y="150.7" width="6" height="6"/><circle xmlns="http://www.w3.org/2000/svg" class="cls-7" cx="569.43" cy="153.7" r="3"/><rect xmlns="http://www.w3.org/2000/svg" class="cls-6" x="567.2" y="161.46" width="6" height="6"/><circle xmlns="http://www.w3.org/2000/svg" class="cls-7" cx="570.2" cy="164.46" r="3"/><path xmlns="http://www.w3.org/2000/svg" class="cls-3" d="M395.82,702.05l2.29-.84s-.28-.61-.83-1.77c-8.16-17-76.36-151.44-207.89-177.18l-3.14-.6a232.31,232.31,0,0,0-52.94-3.37s-26.1.49-58.17,23.14c-.72.49-1.44,1-2.15,1.54-14.43,10.54-29.94,25.57-44.79,47-.29.4-.58.82-.87,1.25,0,0,.24.6.72,1.74,4.59,10.58,31.35,67.08,94.84,104.19l2.49,1.43C182.79,731.21,269.52,747.76,395.82,702.05Z"/><path xmlns="http://www.w3.org/2000/svg" class="cls-4" d="M397.83,702.64l.28-1.43.28-1.44-1.11-.33L28.2,590c-.29.4-.58.82-.87,1.25,0,0,.24.6.72,1.74L395.82,702.05Z"/><path xmlns="http://www.w3.org/2000/svg" class="cls-4" d="M125.38,698.61l55.14-61.81-1.83-2.18-55.8,62.56Z"/><path xmlns="http://www.w3.org/2000/svg" class="cls-4" d="M248,656.66l3.08.43L189.39,522.26l-3.14-.6Z"/><path xmlns="http://www.w3.org/2000/svg" class="cls-4" d="M109.72,616.72l2.22-1.41-36.8-73.88c-.72.49-1.44,1-2.15,1.54Z"/><path xmlns="http://www.w3.org/2000/svg" class="cls-8" d="M390.6,696.14l1.22,1,.67-1c6.37-10.14,55.42-92.27,24.68-171.58-.24-.63-.49-1.26-.74-1.89A147.64,147.64,0,0,0,400.31,493s-9.1-13.84-32.12-23.38c-.51-.22-1-.44-1.55-.64-10.55-4.17-23.87-7.4-40.41-8.1l-1-.05-.69,1c-4.12,6.05-25.38,39.54-23.79,86.18,0,.61,0,1.22.08,1.83C302.8,591.7,323.29,643.85,390.6,696.14Z"/><path xmlns="http://www.w3.org/2000/svg" class="cls-4" d="M391,697.42l.86-.33.87-.34-.2-.7L326.23,460.91l-1-.05-.69,1,66,234.3Z"/><path xmlns="http://www.w3.org/2000/svg" class="cls-4" d="M300.86,549.85l51.84,8.65.55-1.72L300.78,548C300.8,548.63,300.82,549.24,300.86,549.85Z"/><path xmlns="http://www.w3.org/2000/svg" class="cls-4" d="M364.88,601.41l.81,1.8,51.48-78.74c-.24-.63-.49-1.26-.74-1.89Z"/><path xmlns="http://www.w3.org/2000/svg" class="cls-4" d="M339.5,513.71l1.51.71,27.18-44.77c-.51-.22-1-.44-1.55-.64Z"/><path xmlns="http://www.w3.org/2000/svg" class="cls-5" d="M391.36,701.46l2.05.2s0-.53,0-1.54c0-14.79-3.11-132.93-93.91-196.11-.72-.51-1.45-1-2.18-1.5A202.27,202.27,0,0,0,258.25,482s-20.06-8.6-52.71-3.6c-.72.1-1.46.21-2.2.34-14.82,2.5-32.09,7.78-51.2,17.84l-1.11.58-.09,1.47c-.35,9-.5,58,34.36,105.94.45.62.91,1.25,1.38,1.86C218.54,649.09,278.57,690.45,391.36,701.46Z"/><path xmlns="http://www.w3.org/2000/svg" class="cls-4" d="M392.68,702.57l.73-.91.73-.93-.72-.61L152.14,496.59l-1.11.58-.09,1.47L391.36,701.46Z"/><path xmlns="http://www.w3.org/2000/svg" class="cls-4" d="M186.68,606.44l64.44-24.71-.6-2.16-65.22,25C185.75,605.2,186.21,605.83,186.68,606.44Z"/><path xmlns="http://www.w3.org/2000/svg" class="cls-4" d="M295.25,618.83l2.19,1.35L299.51,504c-.72-.51-1.45-1-2.18-1.5Z"/><path xmlns="http://www.w3.org/2000/svg" class="cls-4" d="M204.51,543.33l2.21-.23-1.18-64.69c-.72.1-1.46.21-2.2.34Z"/><polygon xmlns="http://www.w3.org/2000/svg" class="cls-9" points="449.66 707.31 446 736.26 433.46 740.75 436.82 706.03 449.66 707.31"/><polygon xmlns="http://www.w3.org/2000/svg" class="cls-9" points="392.66 707.31 389 736.26 376.46 740.75 379.82 706.03 392.66 707.31"/><polygon xmlns="http://www.w3.org/2000/svg" class="cls-10" points="408.89 348.46 389.24 373.61 408.03 383.84 429.13 357.67 408.89 348.46"/><path xmlns="http://www.w3.org/2000/svg" class="cls-9" d="M459.43,350.29c-.6-3.84-1-7.72-1.27-11.6-.2-3.06-.11-6.17,0-9.27a45.29,45.29,0,0,0,.07-9.08l-.12.26a32.82,32.82,0,0,0-1.34-7.66c-1.95-6.3-6.07-12.25-12.54-14.45-12.78-4.33-28.42,7.72-34.92,26.92s-1.42,38.27,11.36,42.6c9.06,3.07,19.55-2.1,27.22-12.21a36.89,36.89,0,0,0,8.9-1.09,4,4,0,0,0,2.52-1.64A4.45,4.45,0,0,0,459.43,350.29Z"/><path xmlns="http://www.w3.org/2000/svg" class="cls-8" d="M470,318.71c4.11-1.39,7.63-4.87,8.42-9.14s-1.59-9.1-5.71-10.5c-3.11-1.06-6.76-.21-9.62-1.84-1.69-1-2.82-2.65-4-4.19A32.77,32.77,0,0,0,405,297c-4.48,7.76-5.59,17.11-4.76,26s3.48,17.57,6.11,26.14l13.18-26.05c.95-1.89,2-3.87,3.78-5s4.57-1,5.64.81c.7,1.18.5,2.65.47,4s.24,3,1.44,3.62,3-.1,4.22-1a37.76,37.76,0,0,0,7-6.74c1.28-1.57,2.61-3.6,4.53-4.45,2.14-.94,3.91.11,5.75,1.21a28,28,0,0,0,8.31,3.49A17.75,17.75,0,0,0,470,318.71Z"/><path xmlns="http://www.w3.org/2000/svg" class="cls-3" d="M456.83,500.58c3.88,25,7.61,68.5,11.5,93.48,5.7,36.7-12.41,91.58-19.12,128.11-4.85-.56-9.25-2.12-14.1-2.68,1.59-61.91-1.2-140.79-5.21-202.58C438.62,518,448.1,499.49,456.83,500.58Z"/><path xmlns="http://www.w3.org/2000/svg" class="cls-2" d="M396.09,518c5.06.32,10.15-4.25,15.2-3.93a83.79,83.79,0,0,1,18.79,3.4c5.91,1.81,12.75-3.74,18.62-5.69,1.21,10-.9,27.82-2.78,37.73q-6.57,34.75-15.42,69c-3.24,12.57-12.74,24.73-17.72,36.71-2.14,5.15-4.06,10.38-6,15.61-4,10.77-10.91,41.2-14.88,52-4.87-.37-9.87-.51-14.75-.88.48-10.93,4.76-42.3,5.24-53.23.8-18.24,9.89-37.35,17.07-54.13-3.64-17.44-3.75-36.33-3.64-54.15C395.93,544.77,396,533.62,396.09,518Z"/><path xmlns="http://www.w3.org/2000/svg" class="cls-9" d="M465.2,450.82c1.83.27,3.88.18,5.27-1a17.51,17.51,0,0,0,1.74-2.18,7.25,7.25,0,0,1,7.15-2.37c5.18,1.27,7.71,7.89,12.92,9a19.44,19.44,0,0,1,2.39.48,2.34,2.34,0,0,1,1.64,1.64,3.25,3.25,0,0,1-1.22,2.56l-2.78,3a4.37,4.37,0,0,1-1.42,1.15c-1.09.46-2.47,0-3.44.68s-1.05,1.84-1.92,2.41c-1.3.84-3.09-.39-4.55.15a11.33,11.33,0,0,0-1.94,1.42,4.4,4.4,0,0,1-3.88.18,24.59,24.59,0,0,1-3.53-1.91,18.81,18.81,0,0,0-4.69-1.86c-4.45-1.14-9.12-.77-13.7-.39l-.45-10.84a3.38,3.38,0,0,1,.27-1.87c.64-1.09,2.22-1.11,3.46-.82a7.24,7.24,0,0,0,3.89,0C462,449.91,463.68,450.6,465.2,450.82Z"/><rect xmlns="http://www.w3.org/2000/svg" class="cls-3" x="491.13" y="435.18" width="3.47" height="37.95" rx="1.74" ry="1.74" transform="translate(600.92 -207.28) rotate(56.62)"/><path xmlns="http://www.w3.org/2000/svg" class="cls-1" d="M454,721.25a1.41,1.41,0,0,1,2.23-.56c3.1,2.64,11.4,8.47,27.87,12.35a12.06,12.06,0,0,1,6.94,5.47H429.9V727.67a1.39,1.39,0,0,1,2.3-1l2.35,2a6.28,6.28,0,0,0,4.05,1.52l8.77.08a4.56,4.56,0,0,0,4.3-2.91Z"/><rect xmlns="http://www.w3.org/2000/svg" class="cls-2" x="429.9" y="738.51" width="61.18" height="6.31" transform="translate(920.97 1483.33) rotate(180)"/><path xmlns="http://www.w3.org/2000/svg" class="cls-1" d="M394.19,724.71a1.41,1.41,0,0,1,2.29.23c2,3.54,7.86,11.83,22,21.06a12.09,12.09,0,0,1,4.68,7.49l-57.57-20.72,3.67-10.19a1.4,1.4,0,0,1,2.53-.22l1.53,2.71a6.24,6.24,0,0,0,3.29,2.8l8.22,3a4.56,4.56,0,0,0,5-1.28Z"/><rect xmlns="http://www.w3.org/2000/svg" class="cls-2" x="362.76" y="742.95" width="61.18" height="6.31" transform="translate(510.69 1581.34) rotate(-160.2)"/><path xmlns="http://www.w3.org/2000/svg" class="cls-5" d="M454.86,445.68c4.38,14.69,7.7,37.79,9.82,53,.5,3.62.23,17.16-2.26,19.83-1.5,1.6-40.16,5.92-56.29,11.22-2.16.71-12.68,4.83-14.77,3.94-3-1.27-4.58-14.45-3.86-17.6,9.26-40.1,9.26-10.6-4.32-89.45-2.72-15.78-7.87-30.44-2.46-45.5,1.8-5,15.4-19.63,15.4-19.63a50.94,50.94,0,0,0,9.34,7.65c3.93,2.29,9,6.43,12.25,7.21C432.68,379.84,449.57,428,454.86,445.68Z"/><path xmlns="http://www.w3.org/2000/svg" class="cls-9" d="M436.18,552.71a25.94,25.94,0,0,1,2.17,8.95,42,42,0,0,1-1.71,15.64,5.84,5.84,0,0,1-4.33-4.79,2.95,2.95,0,1,1-5.4,1.42,3.5,3.5,0,0,1-6.85-1.16,1.46,1.46,0,0,1-.12,2.19,2.11,2.11,0,0,1-2.37,0,4.07,4.07,0,0,1-1.49-2,15,15,0,0,1-.76-4.37q-.7-9.66-1.42-19.33a4.7,4.7,0,0,1,.31-2.61c.83-1.53,2.94-1.66,4.69-1.58l6.88.3a13.42,13.42,0,0,1,4.51.52C432.92,547,435,550.3,436.18,552.71Z"/><path xmlns="http://www.w3.org/2000/svg" class="cls-5" d="M411.19,402.54l-2.46,40.61c-.45,7.5-.9,15.06.17,22.5.89,6.18,2.82,12.16,4.74,18.11Q424,515.88,434.41,548l-22.3-1.51c-5.93-23-17.28-63.8-18.28-67.52a199.39,199.39,0,0,1-8.52-79.85Z"/></svg>