<svg xmlns="http://www.w3.org/2000/svg" xmlns:xlink="http://www.w3.org/1999/xlink" version="1.1" id="Layer_1" x="0px" y="0px" viewBox="0 0 1080 1080" enable-background="new 0 0 1080 1080" xml:space="preserve">
<g xmlns="http://www.w3.org/2000/svg" opacity="0.55">
	<path fill="#2A94F4" d="M728.159,599.658l13.656-8.843c5.658-8.149,9.958-16.326,12.847-23.014   c-5.943-1.515-18.241,4.754-18.241,4.754c12.169-7.424,16.55-8.319,20.543-10.732c3.489-10.193,2.179-21.42,2.267-31.03   c-12.644,12.064-16.347,14.188-16.347,14.188c7.997-6.472,12.133-13.433,16.306-18.304c-0.641-23.916-8.269-31.541-8.269-31.541   c-5.909,4.088-17.997,14.962-22.762,18.973c-1.493,11.244-1.286,25.35-1.286,25.35c-1.489-6.408-1.72-15.916-1.65-22.817   c-6.794,5.986-5.63,5.089-10.309,11.059c-1.903,11.477-0.355,31.246-0.355,31.246c-2.278-7.533-3.019-19.645-3.26-26.363   c-7.58,10.859-12.273,21.894-15.437,33.578c1.294,9.799,3.657,19.597,3.657,19.597c-1.935-3.931-3.607-9.366-4.928-14.53   c-3.103,13.389-4.516,27.687-6.188,43.575l2.182,13.547l16.54-6.076c12.529-5.996,22.875-15.884,30.951-26.352L728.159,599.658z"/>
</g>
<g xmlns="http://www.w3.org/2000/svg" opacity="0.55">
	<path fill="#2A94F4" d="M715.489,645.5l16.163-1.85c8.691-4.784,16.178-10.196,21.74-14.903   c-4.649-3.999-18.452-3.852-18.452-3.852c14.201-1.239,18.522-0.093,23.173-0.48c7.657-7.579,11.475-18.218,15.827-26.787   c-16.69,5.185-20.95,5.441-20.95,5.441c10.041-2.241,16.84-6.638,22.744-9.146c10.059-21.707,6.617-31.929,6.617-31.929   c-7.111,1.035-22.772,5.4-28.824,6.875c-6.336,9.408-12.422,22.135-12.422,22.135c1.515-6.402,5.535-15.021,8.666-21.172   c-8.747,2.341-7.306,2.055-14.151,5.323c-6.807,9.434-14.21,27.83-14.21,27.83c1.309-7.76,6.029-18.939,8.801-25.064   c-11.617,6.357-20.728,14.155-28.756,23.214c-3.197,9.353-5.437,19.179-5.437,19.179c0.015-4.382,0.933-9.993,2.046-15.206   c-8.732,10.613-16.355,22.792-24.917,36.28l-4.069,13.105l17.517,1.911c13.888,0.2,27.552-4.058,39.44-9.844L715.489,645.5z"/>
</g>
<g xmlns="http://www.w3.org/2000/svg" opacity="0.55">
	<path fill="#2A94F4" d="M363.46,595.92c8.076,10.468,18.422,20.356,30.951,26.352l16.54,6.076l2.182-13.547   c-1.672-15.888-3.085-30.187-6.188-43.575c-1.322,5.164-2.994,10.599-4.928,14.53c0,0,2.362-9.798,3.657-19.597   c-3.163-11.684-7.857-22.719-15.437-33.578c-0.241,6.719-0.982,18.831-3.26,26.363c0,0,1.548-19.77-0.355-31.246   c-4.679-5.97-3.516-5.073-10.309-11.059c0.07,6.901-0.161,16.409-1.65,22.817c0,0,0.207-14.105-1.286-25.35   c-4.765-4.012-16.852-14.885-22.762-18.973c0,0-7.628,7.625-8.269,31.541c4.173,4.871,8.309,11.832,16.306,18.304   c0,0-3.703-2.124-16.347-14.188c0.089,9.61-1.222,20.837,2.267,31.03c3.994,2.414,8.374,3.308,20.543,10.732   c0,0-12.298-6.268-18.241-4.754c2.889,6.688,7.189,14.865,12.847,23.014l13.655,8.843L363.46,595.92z"/>
</g>
<g xmlns="http://www.w3.org/2000/svg" opacity="0.55">
	<path fill="#2A94F4" d="M375.503,646.561c11.888,5.786,25.551,10.043,39.44,9.844l17.517-1.911l-4.069-13.105   c-8.561-13.488-16.184-25.667-24.917-36.28c1.112,5.214,2.031,10.825,2.046,15.206c0,0-2.24-9.826-5.437-19.179   c-8.028-9.059-17.139-16.857-28.756-23.214c2.772,6.125,7.492,17.304,8.801,25.064c0,0-7.403-18.397-14.21-27.83   c-6.846-3.267-5.405-2.981-14.151-5.323c3.131,6.151,7.151,14.77,8.666,21.172c0,0-6.086-12.726-12.422-22.135   c-6.052-1.475-21.713-5.84-28.824-6.875c0,0-3.442,10.221,6.617,31.929c5.903,2.507,12.703,6.905,22.744,9.146   c0,0-4.261-0.256-20.95-5.441c4.352,8.569,8.17,19.208,15.827,26.787c4.65,0.386,8.972-0.76,23.173,0.48   c0,0-13.803-0.147-18.452,3.852c5.561,4.707,13.049,10.119,21.74,14.903l16.163,1.85L375.503,646.561z"/>
</g>
<rect xmlns="http://www.w3.org/2000/svg" x="716.877" y="437.109" transform="matrix(0.9025 0.4306 -0.4306 0.9025 267.6841 -272.1447)" opacity="0.41" fill="#2A94F4" width="36.27" height="36.27"/>
<circle xmlns="http://www.w3.org/2000/svg" opacity="0.22" fill="#2A94F4" cx="655.975" cy="406.812" r="14.829"/>
<circle xmlns="http://www.w3.org/2000/svg" opacity="0.22" fill="#f81c35" cx="779.594" cy="511.274" r="14.829"/>
<rect xmlns="http://www.w3.org/2000/svg" x="307.685" y="430.133" transform="matrix(-0.4915 0.8709 -0.8709 -0.4915 876.3463 384.8434)" opacity="0.41" fill="#2A94F4" width="36.27" height="36.27"/>
<circle xmlns="http://www.w3.org/2000/svg" opacity="0.22" fill="#f81c35" cx="490.602" cy="410.391" r="14.829"/>
<circle xmlns="http://www.w3.org/2000/svg" opacity="0.22" fill="#f81c35" cx="303.789" cy="523.945" r="14.829"/>
<ellipse xmlns="http://www.w3.org/2000/svg" fill="#F7F7F7" cx="537.085" cy="670.745" rx="263.489" ry="26.682"/>
<g xmlns="http://www.w3.org/2000/svg">
	<g>
		<path fill="#f81c35" d="M392.78,679.219V454.203c0-8.645,7.073-15.718,15.718-15.718h275.858c8.645,0,15.718,7.073,15.718,15.718    v225.016H392.78z"/>
		<g>
			<path fill="#F7F7F7" d="M682.741,466.791H409.765c-6.052,0-11.003-4.951-11.003-11.003l0,0c0-6.052,4.951-11.003,11.003-11.003     h272.977c6.052,0,11.003,4.951,11.003,11.003l0,0C693.744,461.839,688.793,466.791,682.741,466.791z"/>
			<g>
				<circle fill="#F7F7F7" cx="411.402" cy="455.788" r="4.519"/>
				<circle fill="#FDA7C3" cx="424.763" cy="455.788" r="4.519"/>
				<circle fill="#2A94F4" cx="438.123" cy="455.788" r="4.519"/>
			</g>
			<rect x="452.977" y="449.5" fill="#F7F7F7" width="199.996" height="12.575"/>
		</g>
	</g>
	<g>
		<path fill="#F7F7F7" d="M480.237,567.608h-64.971c-4.547,0-8.268-3.72-8.268-8.268v-64.971c0-4.547,3.72-8.267,8.268-8.267h64.971    c4.547,0,8.268,3.72,8.268,8.268v64.971C488.504,563.887,484.784,567.608,480.237,567.608z"/>
		<path fill="#F7F7F7" d="M578.913,567.608h-64.971c-4.547,0-8.268-3.72-8.268-8.268v-64.971c0-4.547,3.72-8.267,8.267-8.267h64.971    c4.547,0,8.268,3.72,8.268,8.268v64.971C587.18,563.887,583.46,567.608,578.913,567.608z"/>
		<path fill="#F7F7F7" d="M677.588,567.608h-64.971c-4.547,0-8.268-3.72-8.268-8.268v-64.971c0-4.547,3.72-8.267,8.268-8.267h64.971    c4.547,0,8.268,3.72,8.268,8.268v64.971C685.856,563.887,682.135,567.608,677.588,567.608z"/>
	</g>
	<g>
		<path fill="#F7F7F7" d="M480.237,657.593h-64.971c-4.547,0-8.268-3.72-8.268-8.268v-64.971c0-4.547,3.72-8.268,8.268-8.268h64.971    c4.547,0,8.268,3.72,8.268,8.268v64.971C488.504,653.873,484.784,657.593,480.237,657.593z"/>
		<path fill="#F7F7F7" d="M578.913,657.593h-64.971c-4.547,0-8.268-3.72-8.268-8.268v-64.971c0-4.547,3.72-8.268,8.268-8.268h64.971    c4.547,0,8.268,3.72,8.268,8.268v64.971C587.18,653.873,583.46,657.593,578.913,657.593z"/>
		<path fill="#F7F7F7" d="M677.588,657.593h-64.971c-4.547,0-8.268-3.72-8.268-8.268v-64.971c0-4.547,3.72-8.268,8.268-8.268h64.971    c4.547,0,8.268,3.72,8.268,8.268v64.971C685.856,653.873,682.135,657.593,677.588,657.593z"/>
	</g>
	<g id="bag">
		<path fill="#f81c35" d="M638.411,532.373v-27.566c0-5.014,1.372-13.5,6.513-13.5c4.708,0,6.301,8.811,6.768,12.598    c0.278,2.259,4.163,26.88,4.203,27.128l0.081,0.51L638.411,532.373z M644.924,492.232c-4.425,0-5.594,8.226-5.594,12.575v26.596    l15.576-0.735c-0.576-3.653-3.865-24.529-4.126-26.649C650.439,501.254,649.01,492.232,644.924,492.232z"/>
		<g>
			<g>
				<path fill="#f81c35" d="M652.352,549.25h-8.864c-3.82,0-6.917-3.097-6.917-6.917v-11.654h22.698v11.654      C659.269,546.153,656.172,549.25,652.352,549.25z"/>
				<rect x="637.066" y="538.314" fill="#f81c35" width="21.709" height="0.741"/>
				<rect x="645.538" y="537.492" fill="#f81c35" width="4.765" height="2.893"/>
			</g>
		</g>
	</g>
	<g id="hat">
		<g>
			<path fill="#f81c35" d="M558.1,526.636c1.122,6.15-5.384,4.163-12.756,5.508c-7.373,1.345-12.821,5.514-13.943-0.636     c-1.122-6.15,3.945-12.227,11.318-13.572S556.978,520.485,558.1,526.636z"/>
			<path fill="#f81c35" d="M567.851,529.354c1.037-0.585,1.382-1.497,1.241-2.272c-0.615-3.369-11.817-4.147-25.022-1.737     c-13.202,2.409-22.404,5.553-22.796,10.46c-0.689,8.619,11.526,8.643,17.683,3.022     C549.857,528.877,563.016,532.084,567.851,529.354z"/>
		</g>
		<path fill="#f81c35" d="M557.084,523.669l-25.78,4.704l0.006-0.092c0.024-0.377,0.097-0.75,0.218-1.108l0.053-0.156l24.707-4.508    l0.091,0.114c0.24,0.304,0.459,0.624,0.655,0.958L557.084,523.669z"/>
	</g>
	<g id="glasses">
		<path fill="#f81c35" d="M544.645,618.788c0.05-1.759,0.001-4.704-8.535-4.97c-6.527-0.204-9.539,0.727-8.535,4.569    c0.955,3.655,2.92,6.557,7.38,6.828C539.749,625.505,544.494,624.11,544.645,618.788z"/>
		<path opacity="0.31" fill="#FFFFFF" d="M531.094,624.023c1.01,0.665,2.263,1.088,3.822,1.189l7.62-10.188    c-0.89-0.452-2.149-0.818-3.929-1.029L531.094,624.023z"/>
		<path fill="#f81c35" d="M546.018,618.788c-0.05-1.759-0.001-4.704,8.535-4.97c6.527-0.204,9.539,0.727,8.535,4.569    c-0.955,3.655-2.92,6.557-7.38,6.828C550.914,625.505,546.168,624.11,546.018,618.788z"/>
		<path opacity="0.31" fill="#FFFFFF" d="M556.07,613.791c1.349-0.002,2.515,0.062,3.493,0.212l-7.261,11.094    c-1.284-0.187-2.475-0.555-3.467-1.156L556.07,613.791z"/>
		<path fill="#f81c35" d="M544.118,618.365c0,0,1.163-1.037,2.389,0v0.608c0,0-1.153-1.278-2.389,0V618.365z"/>
	</g>
	<g id="dress">
		<g>
			<rect x="647.099" y="584.769" fill="#f81c35" width="0.57" height="63.898"/>
			<path fill="#f81c35" d="M643.462,647.423h7.844c1.368,0,2.487,1.119,2.487,2.487l0,0h-12.817l0,0     C640.975,648.542,642.094,647.423,643.462,647.423z"/>
			<g>
				<path fill="#f81c35" d="M647.384,591.409L647.384,591.409c-1.262,0-2.294-1.032-2.294-2.294v-3.211      c0-1.262,1.032-2.294,2.294-2.294l0,0c1.262,0,2.294,1.032,2.294,2.294v3.211C649.678,590.376,648.646,591.409,647.384,591.409z      "/>
				<path fill="#f81c35" d="M651.656,595.826h-8.544c-1.736,0-3.156-1.42-3.156-3.156l0,0c0-1.736,1.42-3.156,3.156-3.156h8.544      c1.736,0,3.156,1.42,3.156,3.156l0,0C654.812,594.406,653.392,595.826,651.656,595.826z"/>
			</g>
		</g>
		<path fill="#f81c35" d="M652.784,612.997c-0.632-1.375-1.659-10.025-1.659-10.025s1.17-1.141,1.659-2.44    c0.489-1.299-0.643-3.013-0.679-3.987c-0.035-0.974,0.117-7.092,0.117-7.092h-0.249c-0.198,0-0.358,0.138-0.358,0.309    c0.001,0.928,0.003,3.658,0.003,4.195c0,0.649-4.272,2.653-4.272,2.653s-4.272-2.004-4.272-2.653c0-0.537,0.002-3.267,0.003-4.195    c0-0.172-0.16-0.309-0.358-0.309h-0.249c0,0,0.152,6.118,0.117,7.092s-1.167,2.688-0.678,3.987c0.489,1.299,1.659,2.44,1.659,2.44    s-1.027,8.65-1.659,10.025c-0.632,1.375-5.437,14.364-5.437,14.364c3.455,2.724,10.874,2.897,10.874,2.897    s7.42-0.172,10.874-2.897C658.222,627.362,653.416,614.373,652.784,612.997z"/>
	</g>
	<g>
		<polygon fill="#F7F7F7" points="666.58,460.731 665.983,460.731 661.947,448.413 662.911,448.413   "/>
		<path fill="#F7F7F7" d="M681.563,449.648c-0.122-0.581-0.99-0.544-1.435-0.534c-0.832,0.02-1.662,0.04-2.495,0.041    c-4.037,0-8.073-0.003-12.11-0.003c-0.443,0-0.886,0-1.328,0l0.158,0.479c0.802,2.428,1.603,4.857,2.405,7.285    c0.226,0.684,0.323,1.831,0.707,2.446c0.258,0.414,0.932,0.208,1.327,0.198c1.797-0.045,3.598,0.001,5.396,0.001    c1.034,0,2.068,0.021,3.102,0.019c0.279,0,0.58,0.025,0.857-0.012c0.569-0.076,0.682-1.325,0.812-1.777    c0.54-1.872,1.17-3.716,1.804-5.558c0.243-0.705,0.531-1.404,0.755-2.114C681.578,449.93,681.59,449.775,681.563,449.648z     M675.253,449.646c-0.021,0.539-0.065,1.078-0.105,1.615c-0.024,0.318-0.047,0.636-0.082,0.953    c-0.012,0.108-0.005,0.288-0.091,0.348c-0.169,0.118-0.486,0.028-0.674,0.012c-0.331-0.028-0.665-0.013-0.997-0.013    c-0.505,0-1.01,0.005-1.514,0.005c-0.341,0-0.796,0.167-0.855-0.276c-0.056-0.416-0.061-0.838-0.091-1.256    c-0.023-0.337-0.045-0.674-0.067-1.011c-0.005-0.072-0.051-0.25-0.021-0.316c0.085-0.187,0.5-0.085,0.651-0.077    c0.402,0.02,0.809,0.003,1.212,0.003c0.458,0,0.916,0,1.374,0C674.37,449.632,674.899,449.539,675.253,449.646z M674.723,455.831    c-0.012,0.043-1.235,0.03-1.366,0.035c-0.486,0.017-0.974,0.03-1.46,0.011c-0.152-0.006-0.539,0.028-0.618-0.087    c-0.087-0.126-0.045-0.546-0.059-0.703c-0.044-0.515-0.089-1.03-0.133-1.546c-0.017-0.198-0.144-0.701,0.02-0.779    c0.065-0.031,0.221,0,0.293,0c0.738,0,1.475,0,2.213,0c0.35,0,0.702-0.097,1.056-0.05c0.163,0.021,0.275,0.043,0.313,0.206    c0.076,0.328-0.073,0.831-0.098,1.169C674.842,454.646,674.871,455.289,674.723,455.831z M675.874,452.839    c0.081-0.058,0.203-0.076,0.392-0.076c0.81-0.002,1.621,0,2.431,0c0.191,0,0.869-0.144,1.011-0.014    c0.087,0.08-0.029,0.337-0.06,0.451c-0.085,0.318-0.168,0.637-0.267,0.951c-0.143,0.455-0.112,0.828-0.403,1.231    c-0.41,0.571-1.188,0.448-1.767,0.448c-0.576,0-1.197,0.067-1.768-0.008c0.091-0.523,0.103-1.067,0.155-1.594    c0.033-0.328,0.066-0.656,0.111-0.983C675.74,453.03,675.78,452.907,675.874,452.839z M666.315,452.823    c0.21-0.281,0.767-0.116,1.046-0.081c0.295,0.038,0.595,0.028,0.892,0.025c0.298-0.003,0.595-0.002,0.893-0.003    c0.309-0.001,1-0.234,1.058,0.203c0.05,0.372,0.082,0.75,0.124,1.123c0.034,0.299,0.046,0.599,0.075,0.898    c0.027,0.271,0.173,0.558,0.142,0.831c-0.555,0.145-1.234,0.033-1.802,0.017c-0.441-0.012-1.176,0.064-1.562-0.233    c-0.197-0.152-0.272-0.493-0.343-0.731c-0.122-0.411-0.244-0.821-0.364-1.232C666.403,453.397,666.163,453.027,666.315,452.823z     M669.775,449.659c0.004,0.003,0.007,0.006,0.011,0.009c0.139,0.119,0.103,0.428,0.125,0.589c0.041,0.297,0.065,0.597,0.1,0.894    c0.04,0.336,0.177,0.66,0.171,1.002c-0.008,0.484-0.388,0.435-0.773,0.415c-0.903-0.047-1.818-0.042-2.722,0.002    c-0.451,0.022-0.565-0.141-0.69-0.544c-0.075-0.243-0.151-0.486-0.227-0.729c-0.098-0.315-0.708-1.496-0.345-1.704    c0.254-0.146,0.571-0.079,0.844-0.035c0.317,0.051,0.627,0.065,0.948,0.074c0.471,0.013,0.943,0.019,1.414,0.016    c0.228-0.001,0.456-0.004,0.684-0.009C669.456,449.637,669.654,449.568,669.775,449.659z M668.12,459.053    c-0.18-0.123-0.202-0.431-0.254-0.63c-0.07-0.272-0.128-0.548-0.205-0.818c-0.119-0.421-0.516-0.985-0.455-1.434    c0.021-0.153,0.027-0.141,0.198-0.17c0.136-0.024,0.275-0.031,0.413-0.034c0.277-0.006,0.553,0.017,0.829,0.024    c0.367,0.009,0.733,0.026,1.1,0.036c0.192,0.005,0.714-0.102,0.85,0.055c0.095,0.109,0.074,0.366,0.08,0.499    c0.017,0.395,0.066,0.791,0.105,1.185c0.036,0.365,0.218,0.793,0.162,1.16c-0.043,0.283-0.309,0.226-0.543,0.217    c-0.421-0.016-0.842-0.04-1.264-0.04c-0.286,0-0.615,0.05-0.897-0.001C668.192,459.092,668.153,459.076,668.12,459.053z     M671.596,459.078c-0.131-0.179-0.09-0.661-0.107-0.861c-0.048-0.558-0.103-1.115-0.145-1.674c-0.013-0.167-0.104-0.44,0.06-0.543    c0.127-0.079,0.375-0.021,0.514-0.011c0.691,0.049,1.373,0.076,2.067,0.051c0.273-0.01,0.682-0.171,0.731,0.192    c0.051,0.382-0.085,0.795-0.114,1.176c-0.042,0.534-0.003,1.178-0.158,1.694c-0.411-0.001-0.821,0.008-1.232,0.012    c-0.29,0.002-0.58,0.005-0.87,0.005c-0.192,0-0.52,0.112-0.694,0.007C671.628,459.114,671.611,459.097,671.596,459.078z     M677.913,459.085c-0.001,0-0.001,0.001-0.002,0.001c-0.204,0.144-0.823,0.015-1.07,0.015c-0.37,0-0.74-0.013-1.108,0.023    c-0.306,0.03-0.704,0.122-0.652-0.303c0.057-0.465,0.114-0.93,0.17-1.394c0.033-0.272,0.07-0.544,0.1-0.816    c0.015-0.137-0.028-0.355,0.045-0.477c0.094-0.158,0.277-0.099,0.456-0.099c0.424,0,0.848,0,1.271,0    c0.551,0,1.131-0.051,1.678,0.006c0.016,0.219-0.132,0.522-0.196,0.74c-0.077,0.263-0.154,0.526-0.231,0.789    c-0.083,0.283-0.18,0.561-0.266,0.843C678.054,458.585,678.076,458.967,677.913,459.085z M679.835,452.561c0,0-0.245,0-0.617,0    c-0.373,0-0.873,0-1.373,0c-0.447,0-0.894,0-1.341,0c-0.385,0-0.576,0.1-0.621-0.327c-0.033-0.318,0.09-0.724,0.129-1.042    c0.063-0.52,0.127-1.041,0.191-1.561h4.505c0,0-0.216,0.732-0.434,1.465C680.055,451.829,679.835,452.561,679.835,452.561z"/>
		<path fill="#F7F7F7" d="M678.589,460.181H666.19c-0.151,0-0.275,0.124-0.275,0.275l0,0c0,0.151,0.124,0.275,0.275,0.275h12.399    c0.151,0,0.275-0.124,0.275-0.275l0,0C678.864,460.304,678.74,460.181,678.589,460.181z"/>
		<g>
			<path fill="#F7F7F7" d="M670.159,461.855c0,0.773-0.626,1.399-1.399,1.399s-1.399-0.626-1.399-1.399     c0-0.773,0.626-1.399,1.399-1.399S670.159,461.082,670.159,461.855z"/>
			<path fill="#F7F7F7" d="M678.004,461.855c0,0.773-0.626,1.399-1.399,1.399c-0.773,0-1.399-0.626-1.399-1.399     c0-0.773,0.626-1.399,1.399-1.399C677.377,460.456,678.004,461.082,678.004,461.855z"/>
		</g>
		<path fill="#F7F7F7" d="M665.158,449.153l-1.239-0.832h-3.787c-0.201,0-0.365,0.163-0.365,0.365v0.946h5.391V449.153z"/>
	</g>
</g>
<path xmlns="http://www.w3.org/2000/svg" opacity="0.07" d="M432.398,511.274h-41.992c-20.357,0-36.86-16.503-36.86-36.86v-41.992c0-20.357,16.503-36.86,36.86-36.86  h41.992c20.357,0,36.86,16.503,36.86,36.86v41.992C469.258,494.771,452.755,511.274,432.398,511.274z"/>
<path xmlns="http://www.w3.org/2000/svg" fill="#F7F7F7" d="M427.302,506.235H385.31c-20.357,0-36.86-16.503-36.86-36.86v-41.992c0-20.357,16.503-36.86,36.86-36.86  h41.992c20.357,0,36.86,16.503,36.86,36.86v41.992C464.162,489.732,447.659,506.235,427.302,506.235z"/>
<g xmlns="http://www.w3.org/2000/svg">
	<path fill="#0B4870" d="M417.654,406.812c1.246,0.225,2.511,0.377,3.736,0.688c3.695,0.938,6.937,2.692,9.527,5.541   c2.504,2.753,3.941,6.009,4.25,9.696c0.62,7.403-1.451,14.098-5.862,19.996c-4.905,6.56-11.598,10.145-19.719,11.01   c-2.118,0.226-4.263,0.229-6.397,0.251c-3.624,0.038-7.25,0.023-10.874-0.002c-0.606-0.004-0.882,0.119-1.021,0.787   c-1.348,6.451-2.733,12.894-4.128,19.335c-0.478,2.204-1.812,3.265-4.082,3.273c-3.949,0.015-7.899,0.016-11.848,0.001   c-3.041-0.012-4.675-2.068-4.027-5.036c2.028-9.288,4.061-18.576,6.087-27.864c2.498-11.453,5.004-22.904,7.47-34.363   c0.37-1.719,1.391-2.725,2.955-3.313C395.031,406.812,406.342,406.812,417.654,406.812z M394.386,440.477c0.394,0,0.659,0,0.924,0   c2.732,0,5.465,0.007,8.197-0.005c0.647-0.003,1.305-0.012,1.94-0.121c5.253-0.902,9.67-5.504,10.384-10.787   c0.622-4.599-2.247-8.156-6.877-8.337c-3.214-0.125-6.437-0.026-9.656-0.053c-0.514-0.004-0.614,0.254-0.706,0.668   c-0.73,3.296-1.478,6.588-2.223,9.881C395.721,434.592,395.07,437.461,394.386,440.477z"/>
	<path fill="#0B4870" d="M439.105,423.737c1.725,1.298,3.013,2.836,4.039,4.593c2.404,4.12,2.79,8.575,2.086,13.184   c-0.716,4.689-2.334,9.043-5.066,12.943c-3.629,5.181-8.482,8.717-14.5,10.659c-3.275,1.057-6.645,1.449-10.073,1.446   c-4.384-0.004-8.767,0.008-13.151-0.012c-0.547-0.003-0.782,0.108-0.908,0.707c-1.357,6.479-2.749,12.95-4.147,19.42   c-0.474,2.195-1.828,3.263-4.082,3.265c-3.978,0.005-7.955,0.007-11.933-0.001c-2.869-0.006-4.512-1.974-3.98-4.787   c0.25-1.322,0.571-2.63,0.877-4.021c1.571,0,3.108-0.002,4.644,0c2.256,0.003,4.253-0.646,5.872-2.289   c1.12-1.137,1.747-2.516,2.074-4.054c1.152-5.418,2.305-10.835,3.46-16.252c0.05-0.235,0.122-0.465,0.208-0.793   c0.311,0,0.629,0.002,0.946,0c4.274-0.035,8.555,0.064,12.822-0.138c7.125-0.338,13.555-2.728,19.006-7.367   c7.917-6.737,11.581-15.484,11.767-25.784C439.071,424.252,439.088,424.048,439.105,423.737z"/>
</g>
<g xmlns="http://www.w3.org/2000/svg">
	<g>
		<path fill="#0B4870" d="M451.815,579.599c-5.13,9.275-18.053,12.557-28.866,7.334c-10.808-5.225-15.408-16.99-10.277-26.264    c5.131-9.28,18.058-12.564,28.866-7.336C452.348,558.559,456.95,570.32,451.815,579.599z"/>
		<path fill="#0B4870" d="M429.295,581.465c-2.974,5.719-11.147,7.363-18.259,3.674c-7.105-3.687-10.459-11.318-7.484-17.04    c2.971-5.727,11.147-7.37,18.253-3.676C428.915,568.115,432.267,575.745,429.295,581.465z"/>
		<path fill="#0B4870" d="M438.054,593.419c-4.118,7.283-14.175,10.037-22.454,6.15c-8.28-3.88-11.655-12.931-7.532-20.216    c4.115-7.288,14.172-10.045,22.449-6.16C438.8,577.084,442.173,586.132,438.054,593.419z"/>
		<path fill="#0B4870" d="M416.656,581.778c-2.973,5.724-11.145,7.371-18.256,3.68c-7.106-3.693-10.455-11.321-7.486-17.042    c2.977-5.721,11.147-7.367,18.258-3.679C416.277,568.431,419.631,576.062,416.656,581.778z"/>
	</g>
	<g>
		<g>
			<path fill="#2A94F4" d="M424.007,588.74l5.322,71.215c0,0-2.519,5.484-6.019-1.303c-3.506-6.789-7.998-25.855-11.14-51.141     C409.483,585.856,416.328,580.995,424.007,588.74z"/>
			<g>
				<path fill="#0B4870" d="M411.741,658.265c0,0-0.264,3.334,17.514,5.283c17.788,1.944,44.345,0.804,44.345,0.804l-40.648-7.974      C432.952,656.378,417.267,654.002,411.741,658.265z"/>
				<path fill="#DBA17B" d="M459.477,664.011c8.429,1.16,11.491,5.492,14.658,7.14c3.175,1.65,6.264,3.932,6.25,3.896      c-1.405-3.531-4.114-4-5.323-5.249c-1.208-1.25-0.936-0.668,2.097-0.463c1.722,0.124,4.329,3.271,6.27,5.077      c1.68,1.562,2.838,1.835,2.838,1.835s-1.776-3.06-4.242-5.665c-2.978-3.14-6.799-5.971-7.734-6.451      c-1.706-0.892-7.314-1.839-11.403-1.911C458.278,662.148,453.401,663.174,459.477,664.011z"/>
				<path fill="#F7F7F7" d="M473.823,664.225c0,0,6.235,2.375,7.255,3.302c0.712,0.649,3.547,4.247,3.547,4.247      s-2.356-0.692-3.582-2.071C479.82,668.32,473.823,664.225,473.823,664.225z"/>
			</g>
			<path fill="#0B4870" d="M451.633,659.716c-8.275-2.611-20.912-4.604-35.854-4.733c-4.442-0.037-8.125,1.447-12.18,1.749     c1.482,1.558,2.654,3.481,5.987,4.584c7.899,2.61,21.767,3.354,36.226,3.479c2.319,0.013,4.591-0.015,6.812-0.09     C452.497,663.289,451.966,661.15,451.633,659.716z"/>
			<path fill="#0B4870" d="M428.482,635.601l-1.308,33.572l13.532-0.986l3.432-45.628c0,0-2.277-8.947-8.382-6.473     C431.829,617.671,428.482,635.601,428.482,635.601z"/>
			<path fill="#0B4870" d="M423.998,625.337l-24.135,35.751c0,0-5.19,10.154-2.02,12.365c4.576,3.195,19.447-1.052,21.99-3.299     c5.029-4.444-0.093-1.961,11.851-22.558c10.918-18.827,15.631-26.471,7.276-31.846     C431.17,610.736,423.998,625.337,423.998,625.337z"/>
			<path fill="#DBA17B" d="M353.381,681.895c0,0,33.162,0.27,32.384,0.348c-0.779,0.082-5.505-8.319-5.505-8.319l-22.419,3.891     L353.381,681.895z"/>
			<polygon fill="#DBA17B" points="362.386,681.11 359.692,675.585 345.618,678.902 338.911,682.171 355.071,681.837    "/>
			<path fill="#2A94F4" d="M358.21,672.281l-2.705,1.168l-0.451,2.533l-11.42,2.433l-8.654,4.042c0,0,0.359,0.645,0.85,0.759     c1.827,0.446,8.995-0.964,8.995-0.964s-1.247-1.769-0.552-2.389c0.694-0.617,9.55-2.339,11.718-2.586     c3.73-0.426,4.95,0.165,5.051-0.103C361.303,676.459,358.21,672.281,358.21,672.281z"/>
			<path fill="#0B4870" d="M426.92,667.68l-51.381,3.837l4.515,12.491l64.854-2.626c0,0,8.774-5.858,4.656-12.106     C447.171,665.648,426.92,667.68,426.92,667.68z"/>
			<path fill="#0B4870" d="M438.332,662.408l-48.129-10.852c0,0-6.675-1.929-8.562,1.854c-2.727,5.46-1.66,13.116,1.644,15.104     c6.54,3.932,2.645,0.726,30.216,7.455c25.202,6.146,35.501,8.925,39.931-0.918C457.563,665.868,438.332,662.408,438.332,662.408z     "/>
			<path fill="#2A94F4" d="M408.174,655.595c-8.436-4.4-23.899,16.907-31.776,9.216c0,0,6.382-12.375,8.04-27.986     c0.996-9.367,0.027-26.482,2.811-36.208c6.685-23.354,11.018-19.076,21.658-17.975l4.686-0.022l3.333,2.956l0.296-1.489     l-0.248-1.08c6.023,1.905,5.029,8.646,5.328,15.805C423.211,620.766,408.174,655.595,408.174,655.595z"/>
			<path fill="#0B4870" d="M397.97,657.664c0,0,1.263-4.273,19.517,0.867c7.79,2.19,16.449,5.496,23.817,8.566     c9.894,4.118-2.376,4.97-2.376,4.97l-21.105-3.031C417.823,669.036,401.433,665.328,397.97,657.664z"/>
			<path fill="#2A94F4" d="M393.203,587.025c-5.529,13.243,4.684,70.335,4.684,70.335s10.256,12.12,11.416,0.219     c0.68-6.966-2.887-33.905-3.149-52.172C405.888,587.147,394.572,583.759,393.203,587.025z"/>
			<path fill="#DBA17B" d="M472.11,680.15l-2.139-3.793l-2.519-2.516l-5.333-2.229c0,0-5.937-1.656-8.398-1.477     c-2.466,0.177-11.371-2.163-12.546-2.197c-1.168-0.025-2.46,3.146-2.46,3.146s8.271,1.705,12.124,2.261     c3.846,0.557,9.073,3.245,10.574,3.52c1.039,0.189,2.025,0.25,2.826,0.257c1.18,0.013,1.011-0.453-0.078-0.841     c-1.087-0.39-2.305-0.811-2.832-0.941c-1.047-0.26-0.204-1.295-0.204-1.295s5.468,1.417,6.738,2.377     c1.267,0.97,1.657,1.618,2.053,2.271C470.901,680.316,472.11,680.15,472.11,680.15z"/>
			<path fill="#DBA17B" d="M447.245,563.908c-0.714,0.984-1.516,1.947-2.409,2.867c-5.997,6.175-13.949,8.473-19.022,5.871     c-2.364,3.039-4.995,5.425-7.449,7.293c-2.797,2.137-8.046,2.767-8.046,2.767c-4.209,4.297,7.282,23.07,7.447,22.015     c0.159-1.06,0.122-9.644,2.489-15.828c1.652-4.309,4.972-6.48,7.834-7.577c4.726-1.214,8.439,1.471,8.439,1.471     c0.359,0.253,0.792,0.328,1.195,0.244c0.727-0.558,1.38-1.236,1.938-2.025l6.294-8.924     C447.698,569.611,448.071,566.588,447.245,563.908z"/>
		</g>
	</g>
	<g>
		<path fill="#2A94F4" d="M441.565,679.973c-0.013-0.023-0.025-0.041-0.032-0.061l0.032-1.845h76.415v1.845c0,0,0.007,0.037,0,0.061    l-0.197,0.342c-0.984,1.602-2.745,1.887-4.761,1.887h-66.501c-2.015,0-3.779-0.285-4.762-1.887L441.565,679.973z"/>
		<path fill="#F7F7F7" d="M459.978,680.284c0,0,0.009,0.031,0,0.046l-0.188,0.28c-0.301,0.415-0.684,0.717-1.118,0.941h-11.624    c-1.937,0-3.629-0.232-4.575-1.527l-0.186-0.278c-0.012-0.018-0.025-0.032-0.034-0.05l0.018-0.907h17.707V680.284z"/>
		<g>
			<rect x="470.292" y="678.495" fill="#879BA6" width="38.182" height="1.303"/>
		</g>
		<g>
			<path fill="#2A94F4" d="M460.401,678.001l9.908-37.535c0.262-0.987,1.275-1.789,2.265-1.789h53.612     c0.99,0,1.579,0.802,1.32,1.789l-9.908,37.535H460.401z"/>
			<path fill="#FFFFFF" d="M490.722,658.337c-0.507,1.917,0.638,3.469,2.555,3.469c1.916,0,3.881-1.552,4.388-3.469     c0.505-1.916-0.639-3.469-2.558-3.469C493.19,654.868,491.225,656.421,490.722,658.337z"/>
		</g>
	</g>
	<g>
		<path fill="#0B4870" d="M414.494,556.651c-0.708,6.811,7.554,13.254,18.455,14.395c10.902,1.134,20.317-3.463,21.028-10.267    c0.714-6.816-7.548-13.258-18.452-14.4C424.625,545.242,415.211,549.836,414.494,556.651z"/>
		<path fill="#0B4870" d="M416.004,552.89c6.736,0.707,11.624,6.795,10.912,13.607c-0.091,0.87-0.269,1.713-0.526,2.515    c-1.031-0.414-2.127-0.702-3.283-0.825c-5.871-0.617-11.215,3.075-12.957,8.541c-4.967-1.999-8.225-7.137-7.635-12.783    C403.227,557.143,409.269,552.188,416.004,552.89z"/>
		<path fill="#0B4870" d="M395.594,560.558c4.128,0.43,7.982-1.269,10.521-4.199c5.05,1.956,8.379,7.14,7.788,12.836    c-0.71,6.812-6.751,11.766-13.489,11.062c-6.739-0.705-11.622-6.795-10.909-13.606c0.276-2.642,1.359-5.003,2.969-6.862    C393.455,560.172,394.5,560.443,395.594,560.558z"/>
	</g>
</g>
</svg>