<svg xmlns="http://www.w3.org/2000/svg" xmlns:xlink="http://www.w3.org/1999/xlink" version="1.1" id="Layer_1" x="0px" y="0px" viewBox="0 0 2000 2000" style="enable-background:new 0 0 2000 2000;" xml:space="preserve">
<style xmlns="http://www.w3.org/2000/svg" type="text/css">
	.st0{fill:#F2F2F2;}
	.st1{opacity:0.47;fill:#f81c35;}
	.st2{fill:#F7F7F7;}
	.st3{fill:#0E538C;}
	.st4{fill:#0B4870;}
	.st5{fill:#f81c35;}
	.st6{fill:#FFFFFF;}
	.st7{fill:#CCE9FF;}
	.st8{fill:#FCD2B1;}
</style>
<path xmlns="http://www.w3.org/2000/svg" id="BG" class="st0" d="M385.2,1647.8c-64.4-44.6-255.3-176.7-251-343c2.9-111.7,91.8-167.6,101-361c2-41.2-0.9-64.4,3-160  c7.3-182,22-208,34-223c47.2-58.9,126.9-38,236-53c188-25.9,212.8-124.2,413-214c89.6-40.2,360.2-161.6,598-46  c121.9,59.3,252.1,189.1,270,343c15.5,133.1-68.7,148.5-65,337c1.1,55.5,20.1,149.3,58,337c29.8,147.5,32.6,145.9,31,160  C1784.1,1681.7,883.9,1993,385.2,1647.8z"/>
<g xmlns="http://www.w3.org/2000/svg" id="Plant_2">
	<path class="st1" d="M545.7,1602.6c0,0-84.9-17.6-79.3-98.7c5.6-81.1-45.5-98.2-70.8-139.7s-34.4-125.4,1.2-149.6   c35.6-24.1,101.5,41.5,106.4,86.6c4.9,45,20.7,77.7,65.8,105.1c45.1,27.3,76.1,149.1,67,158.1   C626.9,1573.3,545.7,1602.6,545.7,1602.6z"/>
	<g>
		<g>
			<path class="st2" d="M418.3,1252.9c-1.4,20.9-2.8,42.5,3.5,62.8c6.1,19.6,18.9,37,31,53.3c12.8,17.3,27.4,33.1,41.2,49.5     c13.7,16.3,25.2,33.9,34.9,52.8c10.9,21.2,19.6,43.5,27.9,65.8c0.7,1.8,3.6,1,2.9-0.8c-14-37.7-29.3-75.6-53.9-107.9     c-25.7-33.8-58.6-63.2-76.8-102.3c-10.7-23-9.4-48.5-7.8-73.2C421.5,1250.9,418.5,1250.9,418.3,1252.9L418.3,1252.9z"/>
		</g>
	</g>
	<g>
		<g>
			<path class="st2" d="M452.9,1362.2c-4.4-4-3.1-15.3-2.7-20.5c0.6-9,2.5-17.8,4.3-26.7c3.2-15.9,6.3-32.1,2.8-48.2     c-0.4-1.9-3.3-1.1-2.9,0.8c4.2,19.2-1.4,38.3-4.9,57.1c-1.6,8.5-2.8,17.1-2.5,25.7c0.2,4.4,0.2,10.7,3.8,13.9     C452.2,1365.6,454.3,1363.5,452.9,1362.2L452.9,1362.2z"/>
		</g>
	</g>
	<g>
		<g>
			<path class="st2" d="M396.6,1279.4c-0.8,10-1.4,20.8,4.9,29.2c3.4,4.6,8.1,8.1,12.3,11.9c5.1,4.5,10.1,9,15.2,13.5     c1.4,1.3,3.6-0.8,2.1-2.1c-8.2-7.3-17-14.2-24.6-22.1c-8.2-8.4-7.7-19.5-6.9-30.4C399.7,1277.5,396.7,1277.5,396.6,1279.4     L396.6,1279.4z"/>
		</g>
	</g>
	<g>
		<g>
			<path class="st2" d="M498.8,1418.7c-17-10-35.7-17.5-53.5-25.8c-1.7-0.8-3.3,1.8-1.5,2.6c17.8,8.3,36.5,15.8,53.5,25.8     C499,1422.3,500.5,1419.7,498.8,1418.7L498.8,1418.7z"/>
		</g>
	</g>
	<g>
		<g>
			<path class="st2" d="M539.6,1485.8c-0.9-12.1,4.7-23.9,6.3-35.7c1.5-11.4,1.1-22.9-0.8-34.2c-0.3-1.9-3.2-1.1-2.9,0.8     c2.1,12.4,2.2,25,0.1,37.4c-1.8,10.6-6.5,20.8-5.7,31.7C536.7,1487.7,539.7,1487.7,539.6,1485.8L539.6,1485.8z"/>
		</g>
	</g>
</g>
<g xmlns="http://www.w3.org/2000/svg" id="Plant_1">
	<path class="st1" d="M1427.4,1590.7c0,0-55.7-134.9,62.6-203.6c118.3-68.8,93.8-156.1,127.7-230.6s142.2-166.5,209.4-139.7   c67.2,26.8,38,180.6-20.1,229.9c-58.1,49.3-88.7,102.2-84.2,190.9c4.6,88.7-135.8,246.8-156.9,242.7   C1544.8,1676.2,1427.4,1590.7,1427.4,1590.7z"/>
	<g>
		<g>
			<path class="st2" d="M1536.2,1557.9c-6.9-28.5,1.2-59.6,10.4-86.7c9.6-28.3,22.1-56.9,38.7-81.9c18.9-28.3,43.7-51.9,66.6-76.9     c23.3-25.5,43-53.3,59.4-83.7c18.7-34.7,33.4-71.4,48.1-108c0.7-1.8-2.2-2.6-2.9-0.8c-13.6,33.9-27.2,67.8-44.1,100.3     c-16.5,31.8-36.3,61.1-60.4,87.6c-22.6,24.9-47.2,48.2-66.5,75.9c-16.9,24.3-29.5,52.3-39.5,80.1c-10.6,29.4-20.2,63.7-12.7,94.9     C1533.7,1560.6,1536.6,1559.8,1536.2,1557.9L1536.2,1557.9z"/>
		</g>
	</g>
	<g>
		<g>
			<path class="st2" d="M1694.8,1258c-21.2-17.5-20.9-47.1-15.4-71.7c6.1-27.3,15-54.2,24-80.6c0.6-1.8-2.3-2.6-2.9-0.8     c-5,14.7-9.8,29.5-14.2,44.3c-4.3,14.4-8.7,28.9-11.4,43.7c-4.2,23.6-2,50.8,17.7,67.1C1694.1,1261.3,1696.3,1259.2,1694.8,1258     L1694.8,1258z"/>
		</g>
	</g>
	<g>
		<g>
			<path class="st2" d="M1716,1227.7c21.4-6.9,41.2-17.7,58.6-32c1.5-1.2-0.6-3.3-2.1-2.1c-17,14-36.4,24.5-57.3,31.2     C1713.4,1225.4,1714.1,1228.3,1716,1227.7L1716,1227.7z"/>
		</g>
	</g>
	<g>
		<g>
			<path class="st2" d="M1607.7,1357.1c-6.7-24-7.2-49.1-1.4-73.3c0.4-1.9-2.4-2.7-2.9-0.8c-5.8,24.7-5.4,50.4,1.4,74.9     C1605.3,1359.7,1608.2,1358.9,1607.7,1357.1L1607.7,1357.1z"/>
		</g>
	</g>
	<g>
		<g>
			<path class="st2" d="M1644.9,1314.4c25.5,10.1,53.2,12.7,80.1,7.8c1.9-0.3,1.1-3.2-0.8-2.9c-26.4,4.8-53.5,2.1-78.5-7.8     C1643.9,1310.8,1643.1,1313.7,1644.9,1314.4L1644.9,1314.4z"/>
		</g>
	</g>
	<g>
		<g>
			<path class="st2" d="M1558,1473.1c2.4-23.6,32.3-24,49.9-24.7c21.6-0.8,43.1-1.6,64.7-2.4c1.9-0.1,1.9-3.1,0-3     c-25.3,1-50.7,1.5-76,2.9c-17.3,0.9-39.5,6.6-41.6,27.2C1554.8,1475,1557.8,1475,1558,1473.1L1558,1473.1z"/>
		</g>
	</g>
</g>
<ellipse xmlns="http://www.w3.org/2000/svg" class="st3" cx="998.2" cy="1625.3" rx="751" ry="101.5"/>
<g xmlns="http://www.w3.org/2000/svg" id="List">
	
		<rect x="699.2" y="399.8" transform="matrix(0.9735 0.2285 -0.2285 0.9735 256.2574 -240.6166)" class="st4" width="936" height="1173"/>
	
		<rect x="652.2" y="394.8" transform="matrix(0.9951 9.901833e-02 -9.901833e-02 0.9951 102.6758 -106.1008)" class="st5" width="936" height="1173"/>
	<g>
		
			<rect x="587.2" y="405.8" transform="matrix(0.9982 5.925802e-02 -5.925802e-02 0.9982 58.5357 -61.2059)" class="st6" width="948" height="1101"/>
		
			<rect x="713.5" y="459.1" transform="matrix(0.9982 5.925802e-02 -5.925802e-02 0.9982 31.2373 -44.0881)" class="st7" width="91" height="91"/>
		
			<rect x="703.1" y="633.8" transform="matrix(0.9982 5.925802e-02 -5.925802e-02 0.9982 41.571 -43.1666)" class="st7" width="91" height="91"/>
		
			<rect x="693" y="804.5" transform="matrix(0.9982 5.925802e-02 -5.925802e-02 0.9982 51.6686 -42.2662)" class="st7" width="91" height="91"/>
		
			<rect x="682.9" y="974.2" transform="matrix(0.9982 5.925802e-02 -5.925802e-02 0.9982 61.707 -41.371)" class="st7" width="91" height="91"/>
		
			<rect x="672" y="1156.9" transform="matrix(0.9982 5.925802e-02 -5.925802e-02 0.9982 72.5131 -40.4074)" class="st7" width="91" height="91"/>
		
			<rect x="864.2" y="491.7" transform="matrix(0.9982 5.925802e-02 -5.925802e-02 0.9982 31.8211 -66.6534)" class="st7" width="551" height="23"/>
		
			<rect x="861.4" y="538.2" transform="matrix(0.9982 5.925802e-02 -5.925802e-02 0.9982 34.4682 -62.9652)" class="st7" width="435" height="23"/>
		
			<rect x="854" y="663.9" transform="matrix(0.9982 5.925802e-02 -5.925802e-02 0.9982 41.9668 -64.2904)" class="st7" width="502" height="23"/>
		
			<rect x="851" y="714.9" transform="matrix(0.9982 5.925802e-02 -5.925802e-02 0.9982 45.0167 -65.1196)" class="st7" width="539" height="23"/>
		
			<rect x="843.6" y="839.1" transform="matrix(0.9982 5.925802e-02 -5.925802e-02 0.9982 52.3704 -64.8209)" class="st7" width="551" height="23"/>
		
			<rect x="840.6" y="887.2" transform="matrix(0.9982 5.925802e-02 -5.925802e-02 0.9982 55.2483 -62.7192)" class="st7" width="489" height="26"/>
		
			<rect x="833.4" y="1010.2" transform="matrix(0.9982 5.925802e-02 -5.925802e-02 0.9982 62.4187 -61.3656)" class="st7" width="465" height="23"/>
		
			<rect x="830.3" y="1062.7" transform="matrix(0.9982 5.925802e-02 -5.925802e-02 0.9982 65.5976 -63.6414)" class="st7" width="551" height="23"/>
		
			<rect x="823" y="1186.5" transform="matrix(0.9982 5.925802e-02 -5.925802e-02 0.9982 72.9198 -62.9885)" class="st7" width="551" height="23"/>
		
			<rect x="820.1" y="1232.3" transform="matrix(0.9982 5.925802e-02 -5.925802e-02 0.9982 75.5115 -58.6803)" class="st7" width="414" height="23"/>
	</g>
	<path class="st8" d="M565.8,856.7c0,0,80.4-34,95.8-42.4c15.5-8.4,30.2-164.7,30.6-185.4l28,7c0,0-1.7,181.1-20.7,203.2   c-19,22.1-116.1,73.7-116.1,73.7L565.8,856.7z"/>
	<path class="st8" d="M680.9,616.6c0,0,2.8,14.8,12.1,16.1c9.3,1.3,0-16.1,0-16.1H680.9z"/>
	<path class="st4" d="M673.5,590.3c2.6,0.4,87.9,42.4,87.9,42.4l-7.5,17.7L666,609.8L673.5,590.3z"/>
	<path class="st8" d="M693.2,632.8c0,0-8.2-28.8-0.3-31.9c7.9-3.1,30-2.2,34,7.5c4,9.7-3.1,21.2-7.1,27.8   C715.9,642.9,695,640.3,693.2,632.8z"/>
	<polygon class="st5" points="753.9,650.4 773.3,650.4 761.4,632.7  "/>
	<g>
		<polygon class="st5" points="756.2,535 716.4,495 734.1,477.3 755.3,498.7 816,431.5 834.5,448.2   "/>
	</g>
	<g>
		<polygon class="st5" points="756.2,708 716.4,668 734.1,650.3 755.3,671.7 816,604.5 834.5,621.2   "/>
	</g>
	<g>
		<polygon class="st5" points="729.2,890 689.4,850 707.1,832.3 728.3,853.7 789,786.5 807.5,803.2   "/>
	</g>
	<g>
		<polygon class="st5" points="729.2,1049 689.4,1009 707.1,991.3 728.3,1012.7 789,945.5 807.5,962.2   "/>
	</g>
	<g>
		<polygon class="st5" points="719.2,1245 679.4,1205 697.1,1187.3 718.3,1208.7 779,1141.5 797.5,1158.2   "/>
	</g>
</g>
<g xmlns="http://www.w3.org/2000/svg" id="Person">
	<path class="st4" d="M614.2,1661.8c-23.2-29.4-76.6-32.1-85.1-31.7c-6.9,2.4-13.6,4.6-19.9,6.7c-7.5,3.1-15.1,6.7-23.1,8.6   c0.4,8.6,0.6,13.6,0.6,13.6L614.2,1661.8z"/>
	<path class="st8" d="M696.3,1514c-12,2.6-24.3,3.2-36.4,3.1c-0.1,12.1-0.3,23.1-0.5,32.1c10.2-1.4,21.5-1.5,31.4-4.8   C691.4,1541.3,693.6,1529.9,696.3,1514z"/>
	<path class="st8" d="M395.2,915.1c0,0-58,151.8-57,185.8s120,146,120,146l4-35c0,0-88-84-77-129s56.7-144.5,56.7-144.5L395.2,915.1   z"/>
	<path class="st4" d="M763.2,1588.8c-23.7-38.8-72.6-43.6-72.6-43.6s0.1-0.3,0.2-0.8c-10,3.2-21.3,3.4-31.4,4.8   c-0.4,15.2-0.7,24.8-0.7,24.8L763.2,1588.8z"/>
	<path class="st5" d="M382.5,940.5c0,0,16.3-69.3,53.4-64.9s-9.7,101.1-9.7,101.1L382.5,940.5z"/>
	<path class="st8" d="M529.2,1630.1c-2.7,0.1-4.2,0.6-4.2,0.6s0.2-9.7,0.5-25c-11,8.6-25.9,10.4-40.6,10.6c0.5,11.8,1,21.8,1.3,29.2   c8-1.9,15.6-5.5,23.1-8.6C515.6,1634.7,522.3,1632.5,529.2,1630.1z"/>
	<path class="st4" d="M531.8,1366.5c-4-59.3,0.1-297.8,0.1-297.8h-104c0,0,1.6,44.1,7.3,97.1c7.8,72,20.8,160.3,24.1,177.1   c4.1,21.1,12,188.6,16,280c20.4-0.4,40.9-2.8,56.1-14.7C532.7,1544.6,534.8,1411.1,531.8,1366.5z"/>
	<path class="st4" d="M706.6,1512c10.3-62.1,25.2-174.1,7.1-219.9c-25.6-65-148.6-218.8-148.6-218.8l-72.6-0.1   c-19.6-2.9-18.7,45.8,25.8,109.7c30,43.1,99.4,97.3,121.6,131.3c15.1,23.1,17,127.4,16.4,202.1   C673.1,1516.4,690.1,1515.6,706.6,1512z"/>
	<polygon class="st8" points="435.9,824.8 447.4,880.9 492.9,879.6 481.4,824.8  "/>
	<path class="st8" d="M492.5,762.1c0,0,30,74.6,0,91c-30,16.3-60.9-8.4-61.8-25.6c-0.9-17.2-17.7-53.9-17.7-53.9L492.5,762.1z"/>
	<path class="st4" d="M448.3,810.3h8.4l-11.5-35.3c0,0,52.5-3.5,54.3-23c1.8-19.4-32.6-12.8-58.7-12.8c-33.1,0-39.3,23-39.3,23   s-3.7-0.9,0,20.3c4.9,27.8,34.4,70.7,49.9,70.7c7.9,0-8.8-21.2-8.8-21.2l-1.8-14.1c0,0-11.5-16.3-7.5-19   C437.3,796.1,448.3,810.3,448.3,810.3z"/>
	<path class="st5" d="M435.9,875.6c0,0,82.8-19.8,98.3-0.8c15.5,19,31,198,31,198l-141,64C424.2,1136.8,400.2,929.5,435.9,875.6z"/>
	<path class="st5" d="M567.2,853.8c0,0-66,10.8-59.5,35.2c6.4,24.4,46.6,50.8,93.4,35.5L567.2,853.8z"/>
</g>
</svg>