<?xml version="1.0" encoding="utf-8"?>
<!-- Generator: Adobe Illustrator 23.0.1, SVG Export Plug-In . SVG Version: 6.00 Build 0)  -->
<svg version="1.1" id="Calque_1" xmlns="http://www.w3.org/2000/svg" xmlns:xlink="http://www.w3.org/1999/xlink" x="0px" y="0px"
	 viewBox="0 0 463 463" style="enable-background:new 0 0 463 463;" xml:space="preserve">
<style type="text/css">
	.st0{fill:#3F3F3F;}
</style>
<g>
	<path class="st0" d="M462.7,381.1c-1.5-11.1-7.9-20.7-17.6-26.3L330.8,289c-14-8.1-31.7-5.7-43.2,5.7l-22.5,22.5
		c-6,6-15.5,6.5-22,1.2c-17.7-14.3-35.2-30-51.9-46.7c-16.7-16.7-32.4-34.2-46.7-51.9c-5.3-6.6-4.8-16,1.2-22l22.5-22.5
		c11.4-11.4,13.8-29.2,5.7-43.2L108.2,17.9C102.6,8.2,93.1,1.8,81.9,0.3c-11.1-1.5-22.1,2.2-30,10.2L18,44.4
		C-5.6,68.1-6,111.3,17,166.3C39,219.1,80.3,277.2,133,330c52.8,52.8,110.9,94,163.7,116.1c27,11.3,51.3,17,71.7,17
		c21.1,0,38.2-6,50.2-18l33.9-33.9C460.5,403.1,464.2,392.2,462.7,381.1L462.7,381.1z M323.4,302l114.2,65.8
		c5.6,3.3,9.4,8.8,10.2,15.3c0.7,5.4-0.7,10.8-3.9,15.1l-151.8-86.6l6.2-6.2C304.9,298.7,315.2,297.3,323.4,302L323.4,302z M80,15.2
		c6.5,0.9,12,4.6,15.3,10.2L161,139.6c4.7,8.1,3.3,18.4-3.3,25.1l-5.7,5.7L64.9,19.1c3.6-2.6,7.8-4.1,12.3-4.1
		C78.1,15,79,15.1,80,15.2L80,15.2z M408,434.4c-18.8,18.8-57.2,18-105.5-2.2c-51.1-21.4-107.5-61.4-158.9-112.8
		C92.2,268,52.1,211.5,30.8,160.5C10.6,112.2,9.8,73.8,28.6,55l25.2-25.2L141,181.4l-5.9,5.9c-11.4,11.4-12.4,29.5-2.3,42
		c14.6,18.2,30.7,36,47.8,53.1c17.1,17.1,35,33.2,53.1,47.8c12.6,10.1,30.6,9.1,42-2.3l5.3-5.3l152,86.8L408,434.4L408,434.4z"/>
</g>
</svg>
