<?xml version="1.0" encoding="utf-8"?>
<!-- Generator: Adobe Illustrator 23.0.1, SVG Export Plug-In . SVG Version: 6.00 Build 0)  -->
<svg version="1.1" id="Capa_1" xmlns="http://www.w3.org/2000/svg" xmlns:xlink="http://www.w3.org/1999/xlink" x="0px" y="0px"
	 viewBox="0 0 512 512" style="enable-background:new 0 0 512 512;" xml:space="preserve">
<style type="text/css">
	.st0{fill:#FFFFFF;}
</style>
<g>
	<g>
		<g>
			<path class="st0" d="M120,203H80.5C87.2,112,163.3,40,256,40c73.3,0,139.7,46.2,165.1,114.9c3.8,10.4,15.3,15.6,25.7,11.8
				c10.4-3.8,15.7-15.3,11.8-25.7c-15.2-41-42.1-76-77.9-101.4C344.2,13.7,301,0,256,0c-57.7,0-111.9,22.5-152.7,63.3
				C63,103.5,40.6,156.9,40,213.7C16.1,227.6,0,253.4,0,283v68c0,44.1,35.9,80,80,80h40c11,0,20-9,20-20V223
				C140,212,131,203,120,203z M100,391H80c-22.1,0-40-17.9-40-40v-68c0-22.1,17.9-40,40-40h20V391z"/>
			<path class="st0" d="M432,203h-40c-11,0-20,9-20,20v137v51v21c0,11-9,20-20,20h-61v0.6c-6.8-12.3-19.9-20.6-35-20.6
				c-22.1,0-40,17.9-40,40s17.9,40,40,40c15.1,0,28.2-8.3,35-20.6v0.6h61c33.1,0,60-26.9,60-60v-1h20c44.1,0,80-35.9,80-80v-68
				C512,238.9,476.1,203,432,203z M472,351c0,22.1-17.9,40-40,40h-20v-31V243h20c22.1,0,40,17.9,40,40V351z"/>
		</g>
	</g>
</g>
</svg>
