<svg xmlns="http://www.w3.org/2000/svg" xmlns:xlink="http://www.w3.org/1999/xlink" version="1.1" id="Layer_1" x="0px" y="0px" viewBox="0 0 1080 1080" style="enable-background:new 0 0 1080 1080;" xml:space="preserve">
<style xmlns="http://www.w3.org/2000/svg" type="text/css">
	.st0{fill:#F2F2F2;}
	.st1{fill:#D3D3D3;}
	.st2{fill:none;stroke:#CCE9FF;stroke-width:3;stroke-miterlimit:10;}
	.st3{fill:#0b4870;}
	.st4{fill:#F9CEB2;}
	.st5{fill:#0E538C;}
	.st6{fill:#D9F1FF;}
	.st7{fill:#FCDCC3;}
	.st8{opacity:0.63;fill:#0b4870;}
	.st9{fill:#FFE3CA;}
	.st10{fill:#FFFFFF;}
	.st11{opacity:0.85;fill:#0b4870;}
	.st12{fill:#2A94F4;}
	.st13{fill:#CCE9FF;}
	.st14{fill:#62BFF9;}
	.st15{fill:none;stroke:#F4BFA2;stroke-miterlimit:10;}
	.st16{fill:#71C9FF;}
</style>
<g xmlns="http://www.w3.org/2000/svg">
	<path class="st0" d="M599.98,725.36c72.92-11.57,145.16-33.76,208.07-74.2c15.15-9.74,30.8-22.11,34.95-40.36   c4.17-18.33-4.71-37.42-16.42-51.74c-11.7-14.32-26.36-25.78-37.39-40.69s-18.14-35.24-11.48-52.72   c6.88-18.04,25.47-26.96,41.31-36.83s31.92-26.58,28.14-45.68c-2.4-12.15-12.67-21.24-23.81-25.17s-23.15-3.61-34.86-3.16   c-147.75,5.73-294.91,26.38-438.83,61.58c-44.83,10.96-89.96,23.59-129.84,47.76c-20.76,12.58-41.03,29.92-47.44,54.33   c-9.81,37.41,17.44,75.99,50.06,94.1c16.07,8.92,33.57,14.6,49.83,23.1s31.85,20.6,39.54,37.98c7.7,17.38,5.16,40.77-9.46,51.98   c-9.45,7.25-21.92,8.38-32.31,14.03c-10.38,5.66-18.53,20.5-11.06,30.08c6.18,7.93,17.88,6.1,27.25,3.53   c27.89-7.64,55.78-15.29,83.67-22.93c11.15-3.06,22.54-4.99,34.05-5.79C443.57,741.84,542.6,734.47,599.98,725.36z"/>
</g>
<path xmlns="http://www.w3.org/2000/svg" class="st1" d="M1018.46,782.5H37.54c-2.77,0-5.04-2.27-5.04-5.04v-5.43c0-2.77,2.27-5.04,5.04-5.04h980.93  c2.77,0,5.04,2.27,5.04,5.04v5.43C1023.5,780.23,1021.23,782.5,1018.46,782.5z"/>
<path xmlns="http://www.w3.org/2000/svg" class="st2" d="M1018.5,526.03v264.94c0,6.34-5.19,11.53-11.53,11.53H628.03c-6.34,0-11.53-5.19-11.53-11.53V526.03  c0-6.34,5.19-11.53,11.53-11.53h378.94C1013.31,514.5,1018.5,519.69,1018.5,526.03z"/>
<g xmlns="http://www.w3.org/2000/svg">
	<path class="st3" d="M455.97,750H77.03C69.85,750,64,744.15,64,736.97V472.03c0-7.18,5.85-13.03,13.03-13.03h378.94   c7.19,0,13.03,5.85,13.03,13.03v264.94C469,744.15,463.15,750,455.97,750z M77.03,462C71.5,462,67,466.5,67,472.03v264.94   C67,742.5,71.5,747,77.03,747h378.94c5.53,0,10.03-4.5,10.03-10.03V472.03c0-5.53-4.5-10.03-10.03-10.03H77.03z"/>
</g>
<path xmlns="http://www.w3.org/2000/svg" class="st4" d="M590.36,674.54l-22.85-1.86l-11.98-7.8l-23.04-7.37c0,0-3.24,2.54,0.53,5.49c2.48,1.95,9.66,3.02,16.99,7.41  c-14.05-0.74-37.34-1.95-45.63-3.85c-1.36-0.31-2.51,1.04-1.99,2.33l0.61,1.52l17.51,4.61l-16.59,0.92L513,701  c0,0,59.11-2.01,62.8-8.46c16.59,1.84,21.2-8.3,21.2-8.3L590.36,674.54z"/>
<path xmlns="http://www.w3.org/2000/svg" class="st5" d="M785.55,454.9c-5.08,6.77-8.47,13.55-4.23,19.47s16.09,0.85,16.09,0s0-13.55,0-13.55L785.55,454.9z"/>
<path xmlns="http://www.w3.org/2000/svg" class="st6" d="M494,499.53v264.94c0,6.34-5.19,11.53-11.53,11.53H103.53C97.19,776,92,770.81,92,764.47V499.53  c0-6.34,5.19-11.53,11.53-11.53h378.94C488.81,488,494,493.19,494,499.53z"/>
<path xmlns="http://www.w3.org/2000/svg" class="st3" d="M494,499.53V513H92v-13.47c0-6.34,5.19-11.53,11.53-11.53h378.94C488.81,488,494,493.19,494,499.53z"/>
<path xmlns="http://www.w3.org/2000/svg" class="st7" d="M495.71,675.35l17.9-1.46l9.39-6.11l18.06-5.78c0,0,0.72,1.44-13.72,10.11c11.01-0.58,29.26-1.53,35.75-3.02  c1.07-0.25,1.97,0.81,1.56,1.83l-0.48,1.19l-13.72,3.61l13,0.72l-17.33,18.06c0,0-36.11,0-39-5.06c-13,1.44-16.61-6.5-16.61-6.5  L495.71,675.35z"/>
<path xmlns="http://www.w3.org/2000/svg" class="st8" d="M389.5,599.5c8,17-4,132-4,145s-35,4-35,4l5-138L389.5,599.5z"/>
<path xmlns="http://www.w3.org/2000/svg" class="st5" d="M320.66,479.5c-11.9,5-20.87,15-24.73,27.1c-2.69,8.42-4.36,15.67-7.02,19.01  c-4.41,5.53-80.15,7.96-46.14,63.95c17.43,28.69,127.28,7.86,127.28,7.86S392,578.4,392,548.31c0-11.85-24.94-22.69-20.85-31.12  c10.97-22.58-12.14-42.83-26.33-40.85C337.5,473.95,328.46,476.23,320.66,479.5z"/>
<path xmlns="http://www.w3.org/2000/svg" class="st3" d="M378.5,622.5c0,0,2,27,2,40c0,0.74-0.06,1.53-0.19,2.39c-2.01,14.24-19.81,43.61-19.81,43.61l-1.2,4.81  l-8.8,35.19h-95c0,0-5.75-56.29-8.83-102.5c-0.01-0.11-0.01-0.23-0.02-0.34c-1.14-17.21-1.91-33-1.87-43.92  c0.02-5.41,0.25-9.63,0.72-12.24c0.32-0.45,0.74-0.9,1.26-1.36c1.37-1.19,3.42-2.39,5.98-3.58c4.85-2.28,11.54-4.52,18.91-6.65  c20.09-5.82,45.27-10.77,52.25-12.91l24.95,8.44l40.65,26.06L378.5,622.5z"/>
<path xmlns="http://www.w3.org/2000/svg" class="st3" d="M502.5,698.5c0,0-70.18,26.89-143.2,14.81c-40.5-6.7-81.88-25.39-112.63-67.31c-0.01-0.11-0.01-0.23-0.02-0.34  c-1.05-22.05-1.59-35.64-1.87-43.92c-0.33-10-0.28-12.24-0.28-12.24l2.26-1.36l5.98-3.58c4.85-2.28,11.54-4.52,18.91-6.65  l9.85,15.59c19.69,22.43,54.65,53.54,98.81,71.39c36.56,14.77,79.44,20.46,125.19,4.61C509.5,678.5,502.5,698.5,502.5,698.5z"/>
<polygon xmlns="http://www.w3.org/2000/svg" class="st7" points="345,546 341.85,571.73 333.04,605.5 323.5,567.33 325.61,538.15 "/>
<path xmlns="http://www.w3.org/2000/svg" class="st9" d="M366.76,515.44c0,17.95-12,37.98-26.79,37.98s-26.79-20.03-26.79-37.98s12-32.5,26.79-32.5  S366.76,497.49,366.76,515.44z"/>
<path xmlns="http://www.w3.org/2000/svg" class="st5" d="M364.44,497.91c-3.99,8.5-13.95,20.04-29.23,23.07c-15.28,3.04-19.27,13.96-19.27,13.96  s-14.62-18.22-12.62-24.29c1.99-6.07,18.6-27.93,33.22-27.93S364.44,487.59,364.44,497.91z"/>
<circle xmlns="http://www.w3.org/2000/svg" class="st7" cx="498.5" cy="695.5" r="2.5"/>
<path xmlns="http://www.w3.org/2000/svg" class="st3" d="M494,730v34.47c0,6.34-5.19,11.53-11.53,11.53H103.53C97.19,776,92,770.81,92,764.47V730H494z"/>
<circle xmlns="http://www.w3.org/2000/svg" class="st10" cx="289" cy="753" r="15"/>
<circle xmlns="http://www.w3.org/2000/svg" class="st10" cx="331" cy="753" r="9"/>
<circle xmlns="http://www.w3.org/2000/svg" class="st10" cx="247" cy="753" r="9"/>
<circle xmlns="http://www.w3.org/2000/svg" class="st10" cx="477.5" cy="500.5" r="6.5"/>
<path xmlns="http://www.w3.org/2000/svg" class="st11" d="M187.51,721h-79.02c-3.57,0-6.49-2.92-6.49-6.49V677c0-3.57,2.92-6.49,6.49-6.49h79.02  c3.57,0,6.49,2.92,6.49,6.49v37.51C194,718.08,191.08,721,187.51,721z"/>
<path xmlns="http://www.w3.org/2000/svg" class="st6" d="M590,499.53v264.94c0,6.34,5.19,11.53,11.53,11.53h378.94c6.34,0,11.53-5.19,11.53-11.53V499.53  c0-6.34-5.19-11.53-11.53-11.53H601.53C595.19,488,590,493.19,590,499.53z"/>
<path xmlns="http://www.w3.org/2000/svg" class="st12" d="M590,499.53V513h402v-13.47c0-6.34-5.19-11.53-11.53-11.53H601.53C595.19,488,590,493.19,590,499.53z"/>
<circle xmlns="http://www.w3.org/2000/svg" class="st13" cx="606.5" cy="500.5" r="6.5"/>
<path xmlns="http://www.w3.org/2000/svg" class="st13" d="M896.49,721h79.02c3.57,0,6.49-2.92,6.49-6.49V677c0-3.57-2.92-6.49-6.49-6.49h-79.02  c-3.57,0-6.49,2.92-6.49,6.49v37.51C890,718.08,892.92,721,896.49,721z"/>
<polygon xmlns="http://www.w3.org/2000/svg" class="st7" points="798,507 789,538 805.68,556.22 827.02,539.17 828.03,498.86 "/>
<path xmlns="http://www.w3.org/2000/svg" class="st9" d="M781.96,474.61c-2.15,38.95,3.52,33.88,19.6,39.03c16.08,5.15,33.38-3.98,38.63-20.38  c5.25-16.41-3.52-33.88-19.6-39.03S782.91,457.41,781.96,474.61z"/>
<path xmlns="http://www.w3.org/2000/svg" class="st5" d="M825.51,474.37c-22.46-3.16-52.08-10.16-51.51-33.67c2.96-11.63,3.63-11.37,11.13-6.63  c7.5,4.73,52.2,3.82,53.18,13.33S836.58,475.92,825.51,474.37z"/>
<path xmlns="http://www.w3.org/2000/svg" class="st5" d="M836.98,443.95c8.25,1.15,18.9,7.48,17.82,17.61c-1.08,10.12-3.45,27.39-5.52,30.7  c-2.07,3.31-20.02,17.04-20.02,17.04c-3.35-1.76-0.59-11.33-0.57-15.12c0.04-7.51,0.14-19.34,0.31-20.3  c0.26-1.43-1.39-12.78-1.39-12.78L836.98,443.95z"/>
<ellipse xmlns="http://www.w3.org/2000/svg" transform="matrix(0.1771 -0.9842 0.9842 0.1771 207.0597 1216.7692)" class="st9" cx="831.13" cy="484.57" rx="7.98" ry="6.89"/>
<path xmlns="http://www.w3.org/2000/svg" class="st14" d="M831,535l-0.33,0.24L744,599c-5.21,8.4-11.29,16.14-17.98,23.26C669.82,682.03,570,698,570,698v-27  c0,0,58-9,101-75c18.32-28.12,39.22-44.36,58.78-54.08c26.36-13.09,50.29-14.36,62.22-16.92l26,6.67L831,535z"/>
<path xmlns="http://www.w3.org/2000/svg" class="st15" d="M550,673c0,0,0,6,6,9"/>
<path xmlns="http://www.w3.org/2000/svg" class="st12" d="M831,535l-0.33,0.24L744,599c-5.21,8.4-11.29,16.14-17.98,23.26C669.82,682.03,570,698,570,698v-27  c0,0,58-9,101-75c18.32-28.12,39.22-44.36,58.78-54.08c26.36-13.09,50.29-14.36,62.22-16.92l26,6.67L831,535z"/>
<rect xmlns="http://www.w3.org/2000/svg" x="790.36" y="521.96" transform="matrix(0.9935 0.1139 -0.1139 0.9935 66.8998 -88.6731)" class="st14" width="38" height="38.18"/>
<path xmlns="http://www.w3.org/2000/svg" class="st12" d="M868,567l-10,177H711c0,0,15-57,14-68c-0.45-4.91,0.1-27.74,1.02-53.74C727.1,592.05,709.9,568.64,711,553  c33-23,69.07-25.44,81-28l26,6.67l11.82,3.28c0.29,0.1,0.57,0.19,0.85,0.29C859.81,545.31,868,567,868,567z"/>
<path xmlns="http://www.w3.org/2000/svg" class="st12" d="M855.71,550.12C880,574,911,660,900,740c-15,0-32,0-32,0s-24-62-31-118s6.5-80.95,6.5-80.95L855.71,550.12z"/>
<path xmlns="http://www.w3.org/2000/svg" class="st5" d="M590,730v34.47c0,6.34,5.19,11.53,11.53,11.53h378.94c6.34,0,11.53-5.19,11.53-11.53V730H590z"/>
<circle xmlns="http://www.w3.org/2000/svg" class="st12" cx="795" cy="753" r="15"/>
<circle xmlns="http://www.w3.org/2000/svg" class="st13" cx="753" cy="753" r="9"/>
<circle xmlns="http://www.w3.org/2000/svg" class="st13" cx="837" cy="753" r="9"/>
<circle xmlns="http://www.w3.org/2000/svg" class="st11" cx="125" cy="548" r="23"/>
<circle xmlns="http://www.w3.org/2000/svg" class="st16" cx="959" cy="548" r="23"/>
<g xmlns="http://www.w3.org/2000/svg">
	<g>
		<circle class="st12" cx="540.34" cy="453.13" r="17.76"/>
		<path class="st12" d="M582.79,410.33c-0.26-0.27-0.54-0.51-0.81-0.76l-0.8-0.75c-0.13-0.14-0.28-0.24-0.45-0.37    c-22.97-20.87-58.12-20.04-80.04,1.88l-2.57,2.58l-3.56,3.56c-4.33,4.33-4.31,11.4,0.03,15.74c4.35,4.36,11.41,4.36,15.74,0.03    l6.14-6.14c13.94-13.93,36.61-13.93,50.55-0.01l4.43,4.29c4.29,4.29,11.29,4.28,15.6-0.04c2.09-2.08,3.24-4.85,3.24-7.8    c0.01-2.94-1.13-5.71-3.21-7.78L582.79,410.33z"/>
		<path class="st12" d="M613.05,388.38l-3.69-3.69c-0.01-0.01-0.02-0.04-0.05-0.04l-2.91-2.93c-0.51-0.51-1.07-0.94-1.65-1.33    c-37.43-32.87-94.37-31.86-130.61,3.01c-0.18,0.16-0.37,0.27-0.55,0.45l-6.66,6.67c-3.95,3.95-3.93,10.37,0.04,14.34    c3.97,3.97,10.39,4,14.34,0.04l6.66-6.66c0.04-0.06,0.08-0.11,0.12-0.15c29.31-28.31,75.8-28.49,105.34-0.58l5.24,5.25    c3.95,3.95,10.38,3.93,14.35-0.04C616.98,398.75,617,392.32,613.05,388.38z"/>
	</g>
</g>
</svg>